<?xml version="1.0" standalone="no"?>
<!DOCTYPE svg PUBLIC "-//W3C//DTD SVG 1.1//EN" "http://www.w3.org/Graphics/SVG/1.1/DTD/svg11.dtd" >
<svg xmlns="http://www.w3.org/2000/svg" xmlns:xlink="http://www.w3.org/1999/xlink" version="1.1">
<metadata>
Created by FontForge 20170731 at Fri Jan  1 02:30:17 1904
 By Aleksey,,,
 !22! Soft 1992
</metadata>
<defs>
<font id="BalticaBold" horiz-adv-x="560" >
  <font-face 
    font-family="Baltica"
    font-weight="700"
    font-stretch="normal"
    units-per-em="1000"
    panose-1="2 11 6 4 2 2 2 2 2 4"
    ascent="800"
    descent="-200"
    x-height="499"
    cap-height="710"
    bbox="-62 -238.01 1224 915"
    underline-thickness="62"
    underline-position="-207"
    unicode-range="U+0020-2219"
  />
<missing-glyph horiz-adv-x="500" 
d="M40 667h420v-667h-420v667zM60 647v-627h380v627h-380z" />
    <glyph glyph-name=".notdef" horiz-adv-x="500" 
d="M40 667h420v-667h-420v667zM60 647v-627h380v627h-380z" />
    <glyph glyph-name="glyph1" horiz-adv-x="0" 
 />
    <glyph glyph-name="nonmarkingreturn" horiz-adv-x="333" 
 />
    <glyph glyph-name="space" unicode=" " horiz-adv-x="355" 
 />
    <glyph glyph-name="exclam" unicode="!" horiz-adv-x="279" 
d="M182 205h-88l-39 505h173zM50 73q0 36 24 62t59 26q36 0 59.5 -25.5t23.5 -62.5q0 -36 -24.5 -60.5t-58.5 -24.5q-32 0 -57.5 25.5t-25.5 59.5z" />
    <glyph glyph-name="quotedbl" unicode="&#x22;" horiz-adv-x="520" 
d="M212 721l-83 -288h-74v288h157zM465 721l-84 -288h-73v288h157z" />
    <glyph glyph-name="numbersign" unicode="#" horiz-adv-x="1117" 
d="M680 -62h-95l35 187h-202l-35 -187h-96l36 187h-189l20 96h189l38 201h-188l19 96h189l35 189h95l-35 -189h203l35 189h94l-35 -189h189l-20 -96h-188l-39 -201h189l-19 -96h-189zM640 221l38 201h-202l-38 -201h202z" />
    <glyph glyph-name="dollar" unicode="$" horiz-adv-x="594" 
d="M465 710h56v-181h-65q-3 58 -47.5 100.5t-99.5 45.5v-224l105 -43q143 -64 142 -194q-1 -92 -72 -155.5t-175 -68.5v-116h-52v114q-80 7 -150 62l-18 -50h-51v186h61q8 -63 52.5 -107t105.5 -49v264l-61 24q-86 38 -117 95t-31 111q2 76 60.5 132.5t148.5 63.5v88h40v-87
q81 -5 143 -54zM257 673q-51 -8 -76.5 -36t-25.5 -62q0 -43 23.5 -61t72.5 -39l6 -4v202zM309 33q50 10 84 40.5t35 77.5q1 34 -15 56t-36.5 33t-55.5 26l-12 5v-238z" />
    <glyph glyph-name="percent" unicode="%" horiz-adv-x="849" 
d="M44 511q0 59 26 100.5t66.5 62.5t79.5 21q65 0 119.5 -48t54.5 -136q0 -59 -27 -102t-66.5 -63.5t-80.5 -20.5q-65 2 -118.5 51.5t-53.5 134.5zM152 511q1 -8 1.5 -14.5t0.5 -17.5q2 -22 7 -39q10 -65 58 -65q15 0 32 15t23 50q4 13 6 39q1 8 1.5 14.5t0.5 17.5
q0 10 -0.5 16.5t-1.5 14.5q-2 25 -6 37q-5 36 -21.5 51t-33.5 15q-48 3 -58 -66q-5 -16 -7 -37q0 -11 -0.5 -17t-1.5 -14zM619 724l72 -18l-451 -836l-67 21zM458 72q0 58 26 99.5t65.5 62.5t79.5 21q41 0 81 -20t67 -61.5t27 -101.5q0 -88 -55.5 -137.5t-119.5 -49.5
q-66 3 -118.5 53t-52.5 134zM565 72q1 -8 1.5 -15t0.5 -17q1 -16 6 -39q7 -35 23.5 -49.5t34.5 -14.5q44 0 57 64q3 16 5 39q1 8 1.5 14.5t0.5 17.5q0 9 -0.5 15.5t-1.5 14.5q-2 22 -5 38q-12 62 -57 67q-18 0 -34.5 -15t-23.5 -52q-5 -23 -6 -38q0 -11 -0.5 -17t-1.5 -13z
" />
    <glyph glyph-name="ampersand" unicode="&#x26;" horiz-adv-x="731" 
d="M311 721q55 1 92.5 -20.5t55 -56t15.5 -69.5q-7 -85 -117 -153l154 -229q21 51 28 186h135q-9 -147 -113 -260l42 -60h89v-59l-200 -1l-26 36q-29 -21 -73 -34t-93 -13q-80 0 -138.5 29t-88 75t-29.5 91q0 63 45 119t131 99q-51 69 -65.5 109t-14.5 60q0 68 48.5 109.5
t122.5 41.5zM328 670q-18 0 -30.5 -10t-20 -29t-6.5 -43q1 -44 26 -83q1 -1 17 -23q4 -6 6 -9.5t5 -7.5q59 32 56 110q0 36 -10.5 65.5t-42.5 29.5zM252 351q-69 -44 -69 -136q0 -76 41.5 -124.5t98.5 -50.5q55 -2 109 46z" />
    <glyph glyph-name="quotesingle" unicode="'" horiz-adv-x="216" 
d="M186 710l-82 -289h-75v289h157z" />
    <glyph glyph-name="parenleft" unicode="(" horiz-adv-x="372" 
d="M305 789v-48q-65 -22 -65 -177v-485q0 -153 65 -175v-48q-84 14 -141 117t-65 223q-3 41 -3 124q0 87 3 129q8 120 65 223t141 117z" />
    <glyph glyph-name="parenright" unicode=")" horiz-adv-x="372" 
d="M66 789q57 -10 102.5 -62t72 -127.5t31.5 -150.5q3 -21 3 -129q0 -103 -3 -124q-5 -75 -31.5 -151t-72 -127.5t-102.5 -61.5v48q67 22 67 175v485q0 155 -67 177v48z" />
    <glyph glyph-name="asterisk" unicode="*" horiz-adv-x="357" 
d="M178 493l-91 -53l24 102l-79 69l104 9l40 96l43 -96l102 -9l-77 -69l24 -102z" />
    <glyph glyph-name="plus" unicode="+" 
d="M-12 350v89h248v247h89v-247h246v-89h-246v-246h-89v246h-248z" />
    <glyph glyph-name="comma" unicode="," horiz-adv-x="279" 
d="M219 161l-85 -287h-73v287h158z" />
    <glyph glyph-name="hyphen" unicode="-" horiz-adv-x="372" 
d="M50 209v96h271v-96h-271z" />
    <glyph glyph-name="period" unicode="." horiz-adv-x="279" 
d="M56 73q0 36 23.5 62t59.5 26t59.5 -25.5t23.5 -62.5q0 -34 -25.5 -59.5t-57.5 -25.5t-57.5 25.5t-25.5 59.5z" />
    <glyph glyph-name="slash" unicode="/" horiz-adv-x="573" 
d="M447 739h89l-411 -768h-89z" />
    <glyph glyph-name="zero" unicode="0" 
d="M54 355q0 154 41 236.5t90.5 106t94.5 23.5q88 0 157.5 -80t69.5 -286q0 -156 -41.5 -237t-92 -105.5t-93.5 -24.5q-78 0 -152 73.5t-74 293.5zM198 355q0 -108 2.5 -161.5t20.5 -104t59 -49.5q40 0 58 50t21 107t3 158q0 143 -13 228.5t-69 86.5q-41 0 -59 -50.5
t-20.5 -104t-2.5 -160.5z" />
    <glyph glyph-name="one" unicode="1" 
d="M358 710v-651h82v-59h-82h-150h-86v59h85v508l-52 -45l-36 45l156 143h83z" />
    <glyph glyph-name="two" unicode="2" 
d="M510 183v-183h-459v19l157 201q68 86 103.5 157.5t42.5 140.5q7 80 -23 118t-70 35q-46 -3 -62.5 -40t-20.5 -95h-127q0 75 54.5 129.5t162.5 57.5q110 4 172 -51.5t65 -129.5q7 -82 -61 -175q-21 -30 -64.5 -73.5l-65.5 -65.5q-6 -5 -16.5 -15t-16.5 -16t-13 -14
l-90 -74h269v74h63z" />
    <glyph glyph-name="three" unicode="3" 
d="M40 208h125q4 -75 26.5 -122t80.5 -46q93 1 93 164q3 97 -32.5 127.5t-88.5 30.5l-33 2v34l35 2q51 2 79 31t24 117q-3 51 -17 87t-63 36q-86 2 -86 -150h-114q-2 75 45 137t164 63q94 1 151.5 -46t63.5 -111q6 -54 -25 -101.5t-87 -64.5q60 -17 97.5 -62t41.5 -116
q3 -67 -28 -120t-89 -82.5t-128 -29.5q-64 0 -119 27.5t-86 77.5t-30 115z" />
    <glyph glyph-name="four" unicode="4" 
d="M440 710v-455h84v-76h-84v-118h85v-61h-82h-153h-82v61h96v118h-271l293 531h114zM304 568l-179 -313h179v313z" />
    <glyph glyph-name="five" unicode="5" 
d="M36 204h129q0 -172 104 -166q42 4 71.5 48.5t20.5 159.5q-7 121 -96 146q-38 10 -78 -2t-85 -33v4l78 349h310l-26 -110h-233q-20 0 -26 -6q-2 -2 -3.5 -7t-3.5 -9q0 -3 -2 -13l-31 -133q66 39 147 34q89 -3 145.5 -61.5t64.5 -147.5q7 -73 -23.5 -134t-88 -96.5
t-127.5 -38.5q-62 -3 -118.5 20.5t-92 74t-36.5 121.5z" />
    <glyph glyph-name="six" unicode="6" 
d="M479 565h-117q-8 101 -77 105q-46 3 -72.5 -52t-26.5 -187q62 69 140 65q52 -3 94.5 -31t69 -78.5t30.5 -118.5q4 -85 -27.5 -149t-85.5 -97.5t-120 -33.5q-97 0 -172.5 80.5t-74.5 263.5q0 179 66 283.5t187 105.5q51 1 93 -18.5t66.5 -55.5t26.5 -82zM190 234
q2 -85 20.5 -139.5t72.5 -54.5q90 0 92 191q2 85 -16 146t-73 61q-35 0 -67 -44t-29 -160z" />
    <glyph glyph-name="seven" unicode="7" 
d="M511 710l-113 -334h67l-21 -58l-68 -2l-107 -316h-162l144 316l-101 2l28 58h100l94 210h-265v-72h-57v196h461z" />
    <glyph glyph-name="eight" unicode="8" 
d="M165 378q-52 23 -80.5 65.5t-25.5 102.5q5 77 64.5 126t156.5 49q99 0 158.5 -50t64.5 -125q3 -58 -26 -101.5t-82 -66.5q64 -21 98.5 -75t27.5 -121q-8 -83 -74 -138.5t-167 -55.5t-167.5 55.5t-74.5 138.5q-6 68 29.5 121.5t97.5 74.5zM280 40q53 0 71 45.5t18 93.5
q3 68 -12.5 125t-76.5 57q-98 0 -90 -182q4 -139 90 -139zM280 404q83 0 85 141q0 125 -85 125q-86 0 -86 -125q2 -63 19.5 -102t66.5 -39z" />
    <glyph glyph-name="nine" unicode="9" 
d="M79 144h118q15 -101 77 -104q46 -3 72.5 52.5t25.5 186.5q-57 -69 -139 -65q-79 5 -133 66t-60 164q-6 82 25.5 146t86.5 97.5t119 33.5q59 0 116 -31.5t95 -109t38 -204.5q0 -118 -29.5 -205t-86.5 -134.5t-136 -48.5t-132.5 44.5t-56.5 111.5zM369 476q-2 194 -94 194
q-52 0 -71 -55t-21 -137q0 -92 17.5 -149.5t73.5 -57.5q20 0 42 16.5t38 62t15 126.5z" />
    <glyph glyph-name="colon" unicode=":" horiz-adv-x="279" 
d="M56 73q0 36 23.5 62t59.5 26t59.5 -25.5t23.5 -62.5q0 -34 -25.5 -59.5t-57.5 -25.5t-57.5 25.5t-25.5 59.5zM56 424q0 35 23.5 61t59.5 26t59.5 -25.5t23.5 -61.5t-25.5 -60.5t-57.5 -24.5t-57.5 24.5t-25.5 60.5z" />
    <glyph glyph-name="semicolon" unicode=";" horiz-adv-x="279" 
d="M214 161l-84 -287h-74v287h158zM56 424q0 35 23.5 61t59.5 26t59.5 -25.5t23.5 -61.5t-25.5 -60.5t-57.5 -24.5t-57.5 24.5t-25.5 60.5z" />
    <glyph glyph-name="less" unicode="&#x3c;" horiz-adv-x="743" 
d="M66 420l542 312l39 -70l-479 -277l479 -277l-39 -70l-542 312v70z" />
    <glyph glyph-name="equal" unicode="=" 
d="M-12 459v89h583v-89h-583zM-12 242v89h583v-89h-583z" />
    <glyph glyph-name="greater" unicode="&#x3e;" horiz-adv-x="743" 
d="M675 350l-541 -312l-40 70l480 277l-480 277l40 70l541 -312v-70z" />
    <glyph glyph-name="question" unicode="?" horiz-adv-x="372" 
d="M243 312l61 -44q-14 -40 -50 -58.5t-71 -16.5q-46 3 -81.5 37t-38.5 85q-1 36 12.5 61t40.5 56l89 114q42 53 28 89q-14 37 -58 35q-48 0 -58 -50q-1 -10 -1 -34v-16h-91q-3 42 17 77t57.5 55t85.5 19q70 -1 116 -40t46 -100q0 -66 -60 -132l-105 -126q-32 -32 -23 -61
q9 -30 42 -18q27 12 42 68zM102 73q0 36 23.5 62t59.5 26t60 -26t24 -62q0 -35 -25 -60t-59 -25t-58.5 25.5t-24.5 59.5z" />
    <glyph glyph-name="at" unicode="@" horiz-adv-x="1117" 
d="M683 396q2 8 -2 22q-1 15 -6 29q-4 23 -26 46t-61 19q-38 -3 -71 -32t-55 -71t-34 -89.5t-14 -90.5q-4 -119 89 -124q43 0 83.5 33.5t56.5 95.5zM821 571v0l-92 -370q0 -4 -1.5 -8.5l-3 -9t-1.5 -8.5q-1 -9 -2.5 -18t-3.5 -18q-1 -6 -1 -17q0 -18 19 -23
q46 -11 99.5 10.5t91.5 77t39 139.5q3 85 -24 162t-81 134.5t-131.5 89.5t-170.5 31q-113 -2 -206 -55.5t-147 -149t-54 -212.5q1 -135 60 -230t152 -141t195 -44q133 3 211 57l35 -66q-60 -35 -116.5 -49.5t-129.5 -15.5q-142 -3 -254 56.5t-174 172.5t-61 260
q0 141 65 253.5t176 175t248 62.5q131 0 229 -46t155.5 -118t83.5 -160t23 -167q-3 -96 -49.5 -164t-116.5 -100t-145 -32q-68 0 -92.5 27t-21.5 55q-12 -24 -61 -47.5t-87 -24.5q-40 -2 -79 16t-65.5 60.5t-26.5 112.5q0 97 38 173.5t101.5 119.5t133.5 46q49 1 78 -17.5
t51 -56.5l16 64z" />
    <glyph glyph-name="A" unicode="A" horiz-adv-x="743" 
d="M475 196h-312l-54 -137h76v-59h-214v59h79l264 651h87l291 -651h80l-2 -59h-319v59h82zM308 554l-123 -300h266l-133 300l-2 24h-5z" />
    <glyph glyph-name="B" unicode="B" horiz-adv-x="683" 
d="M461 389v-6q72 -3 126.5 -46.5t57.5 -124.5q4 -95 -70.5 -153.5t-182.5 -58.5h-348v59h82v591h-82v60h331q132 0 182 -50t54 -109q3 -62 -37.5 -107.5t-112.5 -54.5zM279 61h62q64 0 109.5 41.5t42.5 105.5q-1 88 -56 113.5t-109 25.5h-49v-286zM279 408h52
q63 0 99.5 39.5t34.5 90.5q-2 44 -35 78t-101 34h-50v-242z" />
    <glyph glyph-name="C" unicode="C" horiz-adv-x="728" 
d="M671 713v-201h-59q-3 62 -57.5 106t-126.5 44q-65 0 -119 -35t-87 -108t-29 -178q5 -129 69 -211.5t181 -81.5q117 4 197 106l52 -39q-114 -121 -274 -127q-100 -4 -192 40t-148.5 128.5t-59.5 194.5q-3 103 46 191.5t139.5 137t203.5 41.5q100 -5 178 -63l34 55h52z" />
    <glyph glyph-name="D" unicode="D" horiz-adv-x="788" 
d="M44 710h339q107 0 194 -43t136.5 -125t49.5 -187q0 -106 -49 -187.5t-136.5 -124.5t-194.5 -43h-339v59h82v591h-82v60zM279 650v-591h53q85 0 170.5 56t85.5 240q0 185 -85.5 240t-170.5 55h-53z" />
    <glyph glyph-name="E" unicode="E" horiz-adv-x="654" 
d="M275 639v-231h222v76h57v-212h-57v74h-222v-274h285v79h54v-151h-573v59h83v591h-83v60h555v-140h-58v69h-263z" />
    <glyph glyph-name="F" unicode="F" horiz-adv-x="624" 
d="M279 639v-231h226v76h55v-212h-55v74h-226v-287h83v-59h-318v59h82v591h-82v60h550v-140h-58v69h-257z" />
    <glyph glyph-name="G" unicode="G" horiz-adv-x="817" 
d="M670 710h53v-190h-60q-20 50 -48 82.5t-69.5 49t-96.5 16.5q-150 0 -197 -101t-47 -213q2 -135 72.5 -226t190.5 -90q49 1 86 21.5t56 52t19 64.5v92h-101v57h253v-325h-49l-55 73q-82 -78 -223 -85q-135 -3 -232.5 52t-146.5 147t-46 191q3 110 62.5 187t148 115.5
t175.5 40.5q128 5 232 -57z" />
    <glyph glyph-name="H" unicode="H" horiz-adv-x="877" 
d="M279 346v-287h83v-59h-80h-156h-82v59h82v591h-82v60h82h156h80v-60h-83v-242h318v242h-83v60h80h155h83v-60h-83v-591h83v-59h-83h-155h-80v59h83v287h-318z" />
    <glyph glyph-name="I" unicode="I" horiz-adv-x="416" 
d="M283 650v-591h84v-59h-81h-154h-84v59h84v591h-84v60h84h154h81v-60h-84z" />
    <glyph glyph-name="J" unicode="J" horiz-adv-x="564" 
d="M196 710h326v-60h-83v-450q0 -54 -10 -96t-55 -77t-138 -39q-127 -4 -176.5 52t-49.5 136h142q-2 -63 10 -99.5t57 -36.5t56.5 31t11.5 91v488h-91v60z" />
    <glyph glyph-name="K" unicode="K" horiz-adv-x="772" 
d="M279 372l285 278h-86v60h257v-60h-89l-199 -192l246 -399h70v-59h-332v59h83l-178 291l-57 -57v-234h83v-59h-83h-153h-82v59h82v591h-82v60h82h153h83v-60h-83v-278z" />
    <glyph glyph-name="L" unicode="L" horiz-adv-x="594" 
d="M279 72h232v85h68v-157h-535v59h82v591h-82v60h82h156h80v-60h-83v-578z" />
    <glyph glyph-name="M" unicode="M" horiz-adv-x="1040" 
d="M517 216l247 494h231v-60h-83v-591h83v-59h-83h-148h-83v59h83v506l-247 -502h-81l-251 502v-506h84v-59h-84h-59h-82v59h82v591h-82v60h82h143z" />
    <glyph glyph-name="N" unicode="N" horiz-adv-x="891" 
d="M44 710h225l447 -530v470h-81v60h218v-60h-84v-650h-83l-506 583v-524h85v-59h-221v59h82v591h-82v60z" />
    <glyph glyph-name="O" unicode="O" horiz-adv-x="832" 
d="M193 355q0 -108 33 -180t84.5 -103.5t104.5 -31.5t104 30t85.5 100.5t34.5 184.5q0 112 -33 182t-84.5 101.5t-106.5 31.5q-87 0 -154.5 -76.5t-67.5 -238.5zM18 355q0 93 49.5 177.5t141.5 136.5t206 52q115 0 206 -51.5t141.5 -136.5t50.5 -178q0 -94 -50.5 -179
t-141.5 -136.5t-206 -51.5q-114 0 -206 52t-141.5 136.5t-49.5 178.5z" />
    <glyph glyph-name="P" unicode="P" horiz-adv-x="639" 
d="M279 271v-212h85v-59h-84h-154h-82v59h82v591h-82v60h82h185q128 0 215.5 -40t87.5 -174q2 -49 -14.5 -91.5t-54 -73.5t-102 -47t-164.5 -13zM279 325q35 -4 78.5 5.5t77.5 49.5t31 123q-3 89 -57.5 121t-129.5 26v-325z" />
    <glyph glyph-name="Q" unicode="Q" horiz-adv-x="862" 
d="M208 355q0 -108 33 -180t83.5 -103.5t104.5 -31.5q49 0 85 19l-83 78l76 78l92 -81q55 95 55 221q0 108 -33 179.5t-85 103.5t-107 32q-86 0 -153.5 -76.5t-67.5 -238.5zM32 355q0 93 50.5 177.5t141 136.5t205.5 52t206.5 -51.5t142 -136t50.5 -178.5q0 -59 -30 -140.5
t-123 -149.5l85 -81l-71 -80l-119 108q-83 -24 -130 -24q-114 0 -208 51.5t-147 137t-53 178.5z" />
    <glyph glyph-name="R" unicode="R" horiz-adv-x="713" 
d="M44 710h339q265 -5 275 -193q3 -68 -42 -120.5t-145 -78.5v-6q38 -2 53 -32l76 -148q10 -19 22 -33q13 -22 28 -29q11 -8 39 -14q14 -2 24 -2v-47q-41 -20 -117 -17q-54 3 -80 20.5t-55 67.5l-93 172q-13 25 -26.5 30.5t-32.5 5.5h-30v-227h83v-59h-318v59h82v591h-82v60
zM279 650v-307q71 -10 137 21t66 125q0 51 -29.5 107.5t-127.5 53.5h-46z" />
    <glyph glyph-name="S" unicode="S" horiz-adv-x="594" 
d="M465 710h56v-181h-65q-3 63 -52.5 105.5t-114.5 42.5q-59 -1 -96.5 -31t-37.5 -71q0 -43 23.5 -61t72.5 -39l163 -67q143 -64 142 -194q-2 -95 -76.5 -160.5t-197.5 -65.5q-96 0 -175 62l-18 -50h-51v186h61q8 -67 58.5 -112t120.5 -44q61 2 104 35t46 86q1 34 -15 56
t-36.5 33t-55.5 26l-125 52q-86 38 -117 95t-31 111q1 54 31.5 98.5t84.5 71.5t118 27q89 0 158 -54z" />
    <glyph glyph-name="T" unicode="T" horiz-adv-x="654" 
d="M328 0h-77h-83v59h83v591h-172v-75h-64v135h624v-135h-66v75h-170v-591h82v-59h-85h-72z" />
    <glyph glyph-name="U" unicode="U" horiz-adv-x="832" 
d="M41 710h318v-60h-84v-370q0 -92 32.5 -164t158.5 -71q187 6 187 235v370h-85v60h223v-60h-84v-370q0 -115 -49 -203t-226 -89q-110 0 -174 27.5t-92 69.5t-35 85.5t-7 98.5v381h-83v60z" />
    <glyph glyph-name="V" unicode="V" horiz-adv-x="803" 
d="M449 194l214 456h-90v60h259v-60h-91l-298 -650h-82l-313 650h-77v60h368v-60h-95z" />
    <glyph glyph-name="W" unicode="W" horiz-adv-x="1099" 
d="M-15 710h319v-60h-79l140 -442l2 -18h5l2 18l172 502h101l161 -514v-18h5l2 18l156 454h-78v60h220v-60h-85l-228 -650h-83l-164 511v17h-7v-17l-187 -511h-81l-208 650h-85v60z" />
    <glyph glyph-name="X" unicode="X" horiz-adv-x="832" 
d="M428 454l147 196h-82v60h235v-60h-85l-184 -240l257 -351h90v-59h-347v59h81l-175 244l-186 -244h78v-59h-231v59h82l218 288l-218 303h-67v60h324v-60h-83z" />
    <glyph glyph-name="Y" unicode="Y" horiz-adv-x="721" 
d="M-9 710h334v-60h-99l178 -315l1 -6h3l2 6l192 315h-97v60h238v-60h-85l-214 -352v-239h83v-59h-318v59h84v215l-218 376h-84v60z" />
    <glyph glyph-name="Z" unicode="Z" horiz-adv-x="654" 
d="M69 710h547l-372 -638h316v80h57v-152h-582l373 639h-283v-76h-56v147z" />
    <glyph glyph-name="bracketleft" unicode="[" horiz-adv-x="376" 
d="M83 -216v932h235v-78h-84v-774h84v-80h-235z" />
    <glyph glyph-name="backslash" unicode="\" horiz-adv-x="573" 
d="M125 739l411 -768h-89l-411 768h89z" />
    <glyph glyph-name="backslash" horiz-adv-x="573" 
d="M125 739l411 -768h-89l-411 768h89z" />
    <glyph glyph-name="bracketright" unicode="]" horiz-adv-x="376" 
d="M294 -216h-235v80h84v774h-84v78h235v-932z" />
    <glyph glyph-name="asciicircum" unicode="^" horiz-adv-x="558" 
d="M175 788h208l113 -156h-82l-135 117l-134 -117h-83z" />
    <glyph glyph-name="underscore" unicode="_" horiz-adv-x="558" 
d="M0 -208v89h558v-89h-558z" />
    <glyph glyph-name="underscore" unicode="&#xad;" horiz-adv-x="558" 
d="M0 -208v89h558v-89h-558z" />
    <glyph glyph-name="grave" unicode="`" horiz-adv-x="216" 
d="M29 421l83 289h74v-289h-157z" />
    <glyph glyph-name="a" unicode="a" horiz-adv-x="579" 
d="M486 54h60v-54h-200v41q-55 -57 -138 -53q-73 5 -124.5 52.5t-51.5 118.5q0 73 51 120t125 50q82 4 138 -54v104q0 76 -71 83q-86 9 -149 -66l-54 68q48 28 97.5 37.5t104.5 9.5q212 0 212 -132v-325zM346 224q-25 42 -71 44q-37 0 -67 -27t-30 -82q0 -56 30 -83.5
t67 -25.5q43 0 71 41v133z" />
    <glyph glyph-name="b" unicode="b" horiz-adv-x="628" 
d="M237 704v-245l-4 -24h6q31 76 130 76q65 0 117 -32.5t79 -93.5t24 -143q-1 -116 -61.5 -182.5t-163.5 -71.5q-53 -2 -87 15.5t-58 61.5l-71 -66l-50 1v649h-60v52zM234 250v-56q1 -78 30.5 -109t64.5 -31q45 -2 77 39.5t32 156.5q0 78 -16.5 121t-41 59t-51.5 16
q-35 0 -64.5 -31.5t-30.5 -110.5v-54z" />
    <glyph glyph-name="c" unicode="c" horiz-adv-x="538" 
d="M497 499l2 -168h-63q-10 68 -41 98t-69 30q-37 3 -71 -22.5t-52 -78t-17 -124.5q3 -106 48 -155t105 -49q57 3 126 72l32 -52q-59 -62 -183 -62q-123 0 -198.5 71.5t-77.5 186.5q-2 66 26 126.5t82.5 98t131.5 40.5q90 2 150 -50l4 -17h6l-2 18l-1 37h62z" />
    <glyph glyph-name="d" unicode="d" horiz-adv-x="634" 
d="M396 649h-78v52l218 3v-650h60v-54h-176l-17 63h-7q-34 -75 -130 -75q-97 2 -158 68t-64 186q-1 124 60 196.5t162 72.5q96 0 130 -76h7l-7 24v190zM401 250v54q-2 48 -8 65q-18 74 -88 77q-44 2 -76.5 -40.5t-32.5 -155.5q0 -115 32 -156.5t77 -39.5q36 1 58 23t30 52
q6 18 8 65v56z" />
    <glyph glyph-name="e" unicode="e" horiz-adv-x="539" 
d="M508 244h-330q-1 -105 46.5 -157t111.5 -44q77 8 128 94l44 -46q-93 -111 -225 -103q-74 5 -131.5 40t-90 95t-32.5 134q0 73 31 130.5t88.5 90.5t130.5 33q77 0 131 -38t79.5 -101t18.5 -128zM178 298h193q3 55 -9 93t-34.5 57t-49.5 19q-43 0 -72 -42.5t-28 -126.5z
" />
    <glyph glyph-name="f" unicode="f" horiz-adv-x="351" 
d="M94 499v49q0 56 34.5 114.5t154.5 55.5q68 0 113 -27l-37 -81h-15q-6 23 -24.5 45t-39.5 19q-46 -4 -46 -81v-94h86v-53h-86v-392h60v-54h-259v54h59v392h-59v53h59z" />
    <glyph glyph-name="g" unicode="g" horiz-adv-x="635" 
d="M428 499h169v-53h-59v-431q0 -269 -295 -252q-103 6 -165 66l61 98h15q10 -48 43 -83.5t83 -36.5q73 0 95.5 48t22.5 136v57l5 15h-7q-34 -75 -130 -75q-102 2 -162.5 73.5t-59.5 195.5q3 118 64 186t158 68q34 0 75.5 -15t62.5 -71zM400 250q0 14 0.5 25t0.5 29
q0 80 -30 111t-66 31q-44 2 -76.5 -40.5t-32.5 -155.5q0 -115 32 -156.5t77 -39.5q36 0 66 30.5t30 109.5q0 18 -0.5 30t-0.5 26z" />
    <glyph glyph-name="h" unicode="h" horiz-adv-x="654" 
d="M107 649h-69v52l208 3l2 -258l-6 -21h6q45 86 155 86q98 0 124 -54t26 -131v-272h59v-54h-258v54h60v246q0 57 -12.5 95.5t-65.5 35.5q-34 -2 -62 -30.5t-28 -100.5v-246h59v-54h-258v54h60v595z" />
    <glyph glyph-name="i" unicode="i" horiz-adv-x="323" 
d="M234 499v-445h60v-54h-259v54h59v392h-59v53h199zM89 639q0 30 21 52t53 22q33 0 53.5 -21.5t20.5 -52.5t-22 -53t-52 -22q-29 0 -51.5 22.5t-22.5 52.5z" />
    <glyph glyph-name="i" unicode="&#xb3;" horiz-adv-x="323" 
d="M234 499v-445h60v-54h-259v54h59v392h-59v53h199zM89 639q0 30 21 52t53 22q33 0 53.5 -21.5t20.5 -52.5t-22 -53t-52 -22q-29 0 -51.5 22.5t-22.5 52.5z" />
    <glyph glyph-name="j" unicode="j" horiz-adv-x="296" 
d="M36 499h200v-553q0 -168 -157 -174q-27 0 -46 3t-46 15.5t-46 39.5l57 62h14q0 -72 39 -75q35 -4 42 36q1 13 1 32q2 13 2 36v525h-60v53zM84 639q0 30 22 52t53 22q32 0 53 -22t21 -52q0 -31 -22 -53t-52 -22q-29 0 -52 22t-23 53z" />
    <glyph glyph-name="k" unicode="k" horiz-adv-x="627" 
d="M98 649h-69v52l208 3v-444l188 186h-58v53h197v-53h-67l-118 -117l192 -275h53v-54h-267v54h54l-125 185l-49 -49v-136h50v-54h-249v54h60v595z" />
    <glyph glyph-name="l" unicode="l" horiz-adv-x="326" 
d="M101 649h-69v52l208 3v-650h60v-54h-259v54h60v595z" />
    <glyph glyph-name="m" unicode="m" horiz-adv-x="927" 
d="M239 440q42 71 151 71q98 0 134 -64l1 -9h6l2 9q55 69 153 64q144 -6 144 -153v-304h55v-54l-253 -1v55h60v289q0 104 -67 103q-89 -2 -89 -132v-260h60v-54h-261v54h60v289q0 104 -67 103q-91 -2 -91 -132v-260h60v-54h-259v54h60v392h-60v53h201v-38l-6 -21h6z" />
    <glyph glyph-name="n" unicode="n" horiz-adv-x="645" 
d="M239 446l-6 -21h6q45 86 154 86q100 0 125 -53t25 -132v-272h60v-54h-259v54h60v246q0 57 -12 95.5t-64 35.5q-35 -2 -63 -30.5t-28 -100.5v-246h60v-54h-259v54h60v392h-60v53h201v-53z" />
    <glyph glyph-name="o" unicode="o" horiz-adv-x="596" 
d="M186 250q0 -218 110 -218q37 0 72 42t35 176t-35 175t-72 41q-110 0 -110 -216zM38 250q0 111 77 186t181 75q66 0 125 -34t94.5 -93t35.5 -134q0 -112 -77 -187t-178 -75q-103 0 -180.5 76t-77.5 186z" />
    <glyph glyph-name="p" unicode="p" horiz-adv-x="634" 
d="M237 -152h68v-53h-267v53h60v598h-60v53h199v-40l-4 -24h6q31 76 130 76q61 0 111 -29.5t79 -86t30 -138.5q4 -123 -57 -195t-163 -74q-99 0 -130 75h-6l4 -23v-192zM234 250v-56q1 -78 30.5 -109t64.5 -31q45 -2 77 39.5t32 156.5q0 78 -16.5 121t-41 59t-51.5 16
q-35 0 -64.5 -31.5t-30.5 -110.5v-54z" />
    <glyph glyph-name="q" unicode="q" horiz-adv-x="634" 
d="M396 -152v192l7 23h-7q-34 -75 -130 -75q-102 2 -162.5 73.5t-59.5 195.5q3 118 64 186t158 68q34 0 75.5 -15t62.5 -71l24 74h168v-53h-60v-598h60v-53h-268v53h68zM400 250q0 14 0.5 25t0.5 29q0 80 -30 111t-66 31q-44 2 -76.5 -40.5t-32.5 -155.5q0 -115 32 -156.5
t77 -39.5q36 0 66 30.5t30 109.5q0 18 -0.5 30t-0.5 26z" />
    <glyph glyph-name="r" unicode="r" horiz-adv-x="411" 
d="M240 418q12 25 30 45.5t42 33.5t50 13q29 0 63 -20l-53 -114h-14q-7 32 -24.5 44t-35.5 8q-58 -13 -58 -138v-236h69v-54h-268v54h60v392h-60v53h198l1 -61l-4 -20h4z" />
    <glyph glyph-name="s" unicode="s" horiz-adv-x="489" 
d="M357 499h63v-152h-63q3 49 -25.5 84t-79.5 36q-43 1 -66 -16t-25 -43q0 -30 29 -47q21 -14 47 -22q34 -16 61 -27q47 -18 70 -32q78 -42 82 -123q3 -69 -48 -118.5t-148 -50.5q-82 -1 -125 45l-7 12h-5l5 -15v-30h-63v166h63q-2 -53 29.5 -92t100.5 -38q80 5 88 63
q1 27 -26 49q-11 7 -63 31q-10 5 -27.5 12.5t-32.5 13.5q-53 22 -67 31q-70 45 -70 123q-2 66 46.5 109t128.5 43q83 0 121 -41l4 -8h5l-2 13v24z" />
    <glyph glyph-name="s" horiz-adv-x="489" 
d="M357 499h63v-152h-63q3 49 -25.5 84t-79.5 36q-43 1 -66 -16t-25 -43q0 -30 29 -47q21 -14 47 -22q34 -16 61 -27q47 -18 70 -32q78 -42 82 -123q3 -69 -48 -118.5t-148 -50.5q-82 -1 -125 45l-7 12h-5l5 -15v-30h-63v166h63q-2 -53 29.5 -92t100.5 -38q80 5 88 63
q1 27 -26 49q-11 7 -63 31q-10 5 -27.5 12.5t-32.5 13.5q-53 22 -67 31q-70 45 -70 123q-2 66 46.5 109t128.5 43q83 0 121 -41l4 -8h5l-2 13v24z" />
    <glyph glyph-name="t" unicode="t" horiz-adv-x="392" 
d="M104 642l139 50v-193h86v-53h-86v-342q0 -34 3.5 -48.5t21.5 -15.5q31 0 37 71l57 -38q-17 -51 -56.5 -68t-80.5 -17q-54 1 -80 24t-32 50t-6 60v324h-69v53h66v143z" />
    <glyph glyph-name="u" unicode="u" horiz-adv-x="645" 
d="M41 499h199v-314q0 -55 13 -94.5t63 -39.5q91 -1 91 157v238h-57v53h196v-445h60v-54h-199v43l7 20h-7l-9 -18q-20 -25 -58 -41t-78 -16q-106 3 -133.5 64t-27.5 133v261h-60v53z" />
    <glyph glyph-name="v" unicode="v" horiz-adv-x="575" 
d="M0 499h272v-53h-60l119 -278l2 -18h7l1 18l121 278h-58v53h171v-53h-58l-189 -446h-85l-185 446h-58v53z" />
    <glyph glyph-name="w" unicode="w" horiz-adv-x="827" 
d="M0 499h269v-53h-60l95 -250l5 -28h6l3 28l121 303h51l110 -303l3 -27h7l2 27l101 250h-57v53h171v-53h-58l-184 -458h-50l-114 295l-10 28l-3 -28l-119 -295h-55l-176 458h-58v53z" />
    <glyph glyph-name="x" unicode="x" horiz-adv-x="610" 
d="M321 331l99 115h-63v53h194v-53h-62l-135 -159l170 -233h49v-54h-276v54h60l-91 131l-114 -131h87v-54h-207v54h52l150 174l-150 218h-49v53h262v-53h-58z" />
    <glyph glyph-name="y" unicode="y" horiz-adv-x="614" 
d="M350 191l8 -34h6l5 34l106 255h-59v53h178v-53h-61l-235 -571q-21 -49 -48.5 -72t-71.5 -23q-38 0 -67 22l37 89q32 -30 57 -30q28 0 43 37l41 100l-224 448h-45v53h266v-53h-60z" />
    <glyph glyph-name="z" unicode="z" horiz-adv-x="508" 
d="M65 499h403l-244 -445h179v89h65v-143h-414v35l229 411h-153v-87h-65v140z" />
    <glyph glyph-name="braceleft" unicode="{" horiz-adv-x="558" 
d="M163 296v73q99 9 99 152q0 40 -1 61q0 10 -1 27.5t-2 32.5q0 180 175 188v-60q-78 -17 -78 -107q1 -14 2 -31.5t1 -27.5q1 -10 1.5 -23t1 -20t0.5 -22q0 -72 -29 -121t-101 -82v-8q71 -31 100.5 -81t29.5 -123q0 -15 -0.5 -22.5t-1 -19.5t-1.5 -23q0 -9 -1 -26.5
t-2 -32.5q0 -89 78 -107v-59q-70 4 -122.5 44.5t-52.5 143.5q1 15 2 32.5t1 25.5q1 22 1 64q0 50 -19 98t-80 54z" />
    <glyph glyph-name="bar" unicode="|" horiz-adv-x="573" 
d="M234 -208v1117h105v-1117h-105z" />
    <glyph glyph-name="bar" unicode="&#xa6;" horiz-adv-x="573" 
d="M234 -208v1117h105v-1117h-105z" />
    <glyph glyph-name="braceright" unicode="}" horiz-adv-x="558" 
d="M395 369v-73q-61 -6 -80 -54t-19 -98q0 -42 1 -64q1 -9 1.5 -20t1 -17.5t0.5 -20.5q0 -105 -52.5 -144.5t-123.5 -43.5v59q49 12 64.5 45.5t15.5 61.5q0 10 -1 25.5t-3 33.5q-3 30 -3 65q0 73 28.5 122.5t100.5 81.5v8q-73 34 -101 82.5t-28 120.5q0 34 3 65q2 20 3 35
t1 24q0 29 -15.5 63t-64.5 44v60q176 -8 176 -188q0 -20 -1 -32.5t-2 -27.5q-1 -21 -1 -61q0 -143 99 -152z" />
    <glyph glyph-name="asciitilde" unicode="~" horiz-adv-x="1426" 
d="M508 619q29 73 63.5 96t56.5 23q35 1 64 -14q13 -6 74 -35q45 -25 70 -15q20 6 49 46l32 -19q-15 -44 -46.5 -83.5t-75.5 -42.5q-14 0 -54 11q-32 14 -58.5 26.5t-36.5 16.5q-16 10 -29 11q-40 7 -77 -41z" />
    <glyph glyph-name="Agrave" horiz-adv-x="351" 
d="M69 262l135 202h92l-134 -202l134 -200h-92z" />
    <glyph glyph-name="quoteleft" horiz-adv-x="216" 
d="M29 421l83 289h74v-289h-157z" />
    <glyph glyph-name="quoteleft" unicode="&#x2018;" horiz-adv-x="216" 
d="M29 421l83 289h74v-289h-157z" />
    <glyph glyph-name="quoteright" horiz-adv-x="216" 
d="M186 710l-82 -289h-75v289h157z" />
    <glyph glyph-name="quoteright" unicode="&#x2019;" horiz-adv-x="216" 
d="M186 710l-82 -289h-75v289h157z" />
    <glyph glyph-name="quoteright" unicode="&#xb4;" horiz-adv-x="216" 
d="M186 710l-82 -289h-75v289h157z" />
    <glyph glyph-name="quotedblleft" horiz-adv-x="520" 
d="M308 433l82 288h75v-288h-157zM55 433l82 288h75v-288h-157z" />
    <glyph glyph-name="quotedblleft" unicode="&#x201c;" horiz-adv-x="520" 
d="M308 433l82 288h75v-288h-157zM55 433l82 288h75v-288h-157z" />
    <glyph glyph-name="quotedblright" horiz-adv-x="520" 
d="M212 721l-83 -288h-74v288h157zM465 721l-84 -288h-73v288h157z" />
    <glyph glyph-name="quotedblright" unicode="&#x201d;" horiz-adv-x="520" 
d="M212 721l-83 -288h-74v288h157zM465 721l-84 -288h-73v288h157z" />
    <glyph glyph-name="endash" horiz-adv-x="743" 
d="M79 350v89h583v-89h-583z" />
    <glyph glyph-name="endash" unicode="&#x2013;" horiz-adv-x="743" 
d="M79 350v89h583v-89h-583z" />
    <glyph glyph-name="emdash" horiz-adv-x="1159" 
d="M32 318v83h1095v-83h-1095z" />
    <glyph glyph-name="emdash" unicode="&#x2014;" horiz-adv-x="1159" 
d="M32 318v83h1095v-83h-1095z" />
    <glyph glyph-name="trademark" horiz-adv-x="891" 
d="M186 445h-38h-42v31h42v294h-86v-36h-32v66h312v-66h-33v36h-85v-294h41v-31h-43h-36zM617 553l123 247h116v-30h-42v-297h42v-29h-42h-74h-41v29h41v253l-123 -251h-41l-125 251v-253h42v-29h-42h-30h-41v29h41v297h-41v30h41h72z" />
    <glyph glyph-name="trademark" unicode="&#x2122;" horiz-adv-x="891" 
d="M186 445h-38h-42v31h42v294h-86v-36h-32v66h312v-66h-33v36h-85v-294h41v-31h-43h-36zM617 553l123 247h116v-30h-42v-297h42v-29h-42h-74h-41v29h41v253l-123 -251h-41l-125 251v-253h42v-29h-42h-30h-41v29h41v297h-41v30h41h72z" />
    <glyph glyph-name="Atilde" horiz-adv-x="354" 
d="M293 262l-136 -200h-92l132 200l-132 202h92z" />
    <glyph glyph-name="ydieresis" unicode="&#xa1;" horiz-adv-x="683" 
d="M400 323l145 327h-81v60h219v-60h-79l-242 -546q-23 -56 -49.5 -86t-83.5 -30q-54 0 -92 24l42 97q45 -33 71 -33q39 0 62 46l9 26l-258 502h-63v60h301v-60h-85l170 -327l4 -26h6z" />
    <glyph glyph-name="Ydieresis" unicode="&#xa2;" horiz-adv-x="614" 
d="M350 191l8 -34h6l5 34l106 255h-59v53h178v-53h-61l-235 -571q-21 -49 -48.5 -72t-71.5 -23q-38 0 -67 22l37 89q32 -30 57 -30q28 0 43 37l41 100l-224 448h-45v53h266v-53h-60z" />
    <glyph glyph-name="Ydieresis" unicode="&#x178;" horiz-adv-x="614" 
d="M350 191l8 -34h6l5 34l106 255h-59v53h178v-53h-61l-235 -571q-21 -49 -48.5 -72t-71.5 -23q-38 0 -67 22l37 89q32 -30 57 -30q28 0 43 37l41 100l-224 448h-45v53h266v-53h-60z" />
    <glyph glyph-name="lozenge" unicode="&#xa3;" horiz-adv-x="520" 
d="M227 160l-83 -288h-74v288h157zM480 160l-84 -288h-73v288h157z" />
    <glyph glyph-name="section" unicode="&#xa7;" horiz-adv-x="558" 
d="M440 611h-91q1 27 -16 45.5t-44 17.5q-39 -1 -47 -31q-11 -29 33 -70l149 -137q72 -61 73 -138q1 -57 -37.5 -95.5t-110.5 -78.5q8 -5 18 -16t16 -17q9 -7 19 -15.5t15 -17.5q15 -20 18 -51q2 -32 -15 -64t-53.5 -54.5t-94.5 -22.5q-85 0 -122.5 36.5t-33.5 87.5h91
q-1 -37 18.5 -55t45.5 -18q24 0 38.5 12t16.5 27q5 20 -6.5 34.5t-40.5 38.5l-157 149q-57 54 -61 119q-4 62 35 102.5t111 82.5q-76 69 -74 128q0 46 42 81.5t112 35.5q66 0 112.5 -32.5t40.5 -83.5zM224 453q-59 -41 -51 -112q4 -53 48 -91l104 -99q61 47 54 115
q-3 31 -14 49t-34 36z" />
    <glyph glyph-name="guilsinglright" unicode="&#xa8;" horiz-adv-x="654" 
d="M275 639v-231h222v76h57v-212h-57v74h-222v-274h285v79h54v-151h-573v59h83v591h-83v60h555v-140h-58v69h-263zM385 842q0 28 20 49t49 21q31 0 50.5 -20.5t19.5 -49.5q0 -30 -21 -50t-49 -20t-48.5 21.5t-20.5 48.5zM162 842q0 28 19 49t50 21t50.5 -20.5t19.5 -49.5
q0 -28 -20 -49t-50 -21t-49.5 21.5t-19.5 48.5z" />
    <glyph glyph-name="guilsinglright" unicode="&#x203a;" horiz-adv-x="654" 
d="M275 639v-231h222v76h57v-212h-57v74h-222v-274h285v79h54v-151h-573v59h83v591h-83v60h555v-140h-58v69h-263zM385 842q0 28 20 49t49 21q31 0 50.5 -20.5t19.5 -49.5q0 -30 -21 -50t-49 -20t-48.5 21.5t-20.5 48.5zM162 842q0 28 19 49t50 21t50.5 -20.5t19.5 -49.5
q0 -28 -20 -49t-50 -21t-49.5 21.5t-19.5 48.5z" />
    <glyph glyph-name="copyright" unicode="&#xa9;" horiz-adv-x="920" 
d="M69 392q0 108 54.5 199.5t144.5 142t193 50.5q77 0 147 -28.5t126 -82t87.5 -126t31.5 -155.5q0 -82 -31.5 -154.5t-87.5 -126.5t-126 -82.5t-147 -28.5q-103 0 -193 50.5t-144.5 142t-54.5 199.5zM122 392q0 -88 44 -165.5t122.5 -124.5t172.5 -47t172 46.5t121.5 125
t43.5 165.5q0 94 -46.5 172t-125 121.5t-165.5 43.5q-86 0 -165.5 -44t-126.5 -121.5t-47 -171.5zM635 583v-133h-49q-7 52 -33.5 76.5t-53.5 24.5q-24 2 -43.5 -9t-35.5 -33.5t-24.5 -58.5t-8.5 -79q1 -86 38.5 -124t82.5 -38q47 2 102 57l25 -42q-48 -45 -149 -51
q-97 0 -157 60t-60 148q0 86 50 147.5t140 64.5q72 2 120 -40l4 -14h5l-2 15l-1 29h50z" />
    <glyph glyph-name="guillemotleft" unicode="&#xab;" horiz-adv-x="558" 
d="M69 262l135 202h92l-134 -202l134 -200h-92zM266 262l135 202h92l-132 -202l132 -200h-92z" />
    <glyph glyph-name="logicalnot" unicode="&#xac;" horiz-adv-x="372" 
d="M50 209v96h271v-96h-271z" />
    <glyph glyph-name="registered" unicode="&#xae;" horiz-adv-x="763" 
d="M69 599q0 87 43.5 159t115.5 113t153 41q83 0 155 -40.5t115.5 -112t43.5 -160.5q0 -90 -43.5 -161.5t-115.5 -112t-155 -40.5q-81 0 -153 41t-115.5 113t-43.5 160zM111 599q0 -76 37.5 -138t101 -97.5t131.5 -35.5q115 0 193.5 81t78.5 190q0 113 -81.5 191.5
t-190.5 78.5q-108 0 -189 -78t-81 -192zM240 735v28h160q126 -1 128 -90q3 -71 -88 -94v-4q21 -2 26 -14l37 -69q2 -6 9 -17l13 -13l7.5 -2.5l10.5 -3.5q5 0 7.5 -0.5t5.5 -1.5v-22q-26 -10 -57 -8q-24 2 -36.5 10t-26.5 32l-43 80q-10 18 -28 18h-15v-106h40v-29h-150v29
h39v277h-39zM350 735v-144q36 -4 66.5 10t30.5 59q0 23 -13.5 49t-61.5 26h-22z" />
    <glyph glyph-name="integral" unicode="&#xaf;" horiz-adv-x="416" 
d="M283 650v-591h84v-59h-81h-154h-84v59h84v591h-84v60h84h154h81v-60h-84zM256 845q0 28 20 49t49 21q31 0 50.5 -20.5t19.5 -49.5q0 -30 -21 -50t-49 -20t-48.5 21.5t-20.5 48.5zM33 845q0 28 19 49t50 21t50.5 -20.5t19.5 -49.5q0 -28 -20 -49t-50 -21t-49.5 21.5
t-19.5 48.5z" />
    <glyph glyph-name="degree" unicode="&#xb0;" horiz-adv-x="558" 
d="M93 631q0 75 53 130.5t133 55.5q46 0 90 -24t70 -67t26 -95q0 -53 -26 -95t-68.5 -66t-91.5 -24q-50 0 -92 24t-68 66.5t-26 94.5zM168 631q0 -44 31.5 -77.5t79.5 -33.5q44 0 77.5 31t33.5 80q0 45 -31.5 78.5t-79.5 33.5t-79.5 -34t-31.5 -78z" />
    <glyph glyph-name="plusminus" unicode="&#xb1;" 
d="M-12 350v89h248v247h89v-247h246v-89h-246v-246h-89v246h-248zM3 -91v89h558v-89h-558z" />
    <glyph glyph-name="germandbls" unicode="&#xb2;" horiz-adv-x="416" 
d="M283 650v-591h84v-59h-81h-154h-84v59h84v591h-84v60h84h154h81v-60h-84zM141 842q0 28 19 49t50 21t50.5 -20.5t19.5 -49.5q0 -28 -20 -49t-50 -21t-49.5 21.5t-19.5 48.5z" />
    <glyph glyph-name="bullet" unicode="&#xb7;" horiz-adv-x="558" 
d="M130 416q0 41 20.5 75.5t55.5 53.5t73 19q41 0 75.5 -20.5t54 -55.5t19.5 -72t-19.5 -72t-54 -55.5t-75.5 -20.5q-38 0 -73 19t-55.5 53.5t-20.5 75.5z" />
    <glyph glyph-name="bullet" unicode="&#x2022;" horiz-adv-x="558" 
d="M130 416q0 41 20.5 75.5t55.5 53.5t73 19q41 0 75.5 -20.5t54 -55.5t19.5 -72t-19.5 -72t-54 -55.5t-75.5 -20.5q-38 0 -73 19t-55.5 53.5t-20.5 75.5z" />
    <glyph glyph-name="fi" unicode="&#xb8;" horiz-adv-x="539" 
d="M508 244h-330q-1 -105 46.5 -157t111.5 -44q77 8 128 94l44 -46q-93 -111 -225 -103q-74 5 -131.5 40t-90 95t-32.5 134q0 73 31 130.5t88.5 90.5t130.5 33q77 0 131 -38t79.5 -101t18.5 -128zM178 298h193q3 55 -9 93t-34.5 57t-49.5 19q-43 0 -72 -42.5t-28 -126.5z
M91 639q0 30 21 52t54 22q29 0 51.5 -21.5t22.5 -52.5q0 -29 -21 -52t-53 -23q-30 0 -52.5 22.5t-22.5 52.5zM315 639q0 30 21 52t53 22q31 0 53 -22t22 -52q0 -31 -23 -53t-52 -22q-32 0 -53 23t-21 52z" />
    <glyph glyph-name="guilsinglleft" unicode="&#xb9;" horiz-adv-x="1117" 
d="M250 710l389 -522v462h-83v60h208v-60h-72v-650h-86l-437 570v-511h81v-59h-221v59h83v591h-83v60h221zM756 383q0 42 17 84t55 71t95 29q55 0 93 -29t55 -71t17 -84q0 -69 -42 -127t-123 -58q-57 0 -95 29t-55 71.5t-17 84.5zM854 383q0 -149 66 -149q69 0 69 149
q0 146 -69 146q-66 0 -66 -146zM764 117h316v-62h-316v62z" />
    <glyph glyph-name="guilsinglleft" unicode="&#x2039;" horiz-adv-x="1117" 
d="M250 710l389 -522v462h-83v60h208v-60h-72v-650h-86l-437 570v-511h81v-59h-221v59h83v591h-83v60h221zM756 383q0 42 17 84t55 71t95 29q55 0 93 -29t55 -71t17 -84q0 -69 -42 -127t-123 -58q-57 0 -95 29t-55 71.5t-17 84.5zM854 383q0 -149 66 -149q69 0 69 149
q0 146 -69 146q-66 0 -66 -146zM764 117h316v-62h-316v62z" />
    <glyph glyph-name="guillemotright" unicode="&#xbb;" horiz-adv-x="558" 
d="M490 262l-135 -200h-93l134 200l-134 202h93zM293 262l-136 -200h-92l132 200l-132 202h92z" />
    <glyph glyph-name="divide" unicode="&#xbc;" horiz-adv-x="558" 
d="M-12 350v89h582v-89h-582zM205 600q0 29 21.5 51.5t52.5 22.5q20 0 37.5 -10.5t27.5 -28t10 -35.5q0 -30 -21.5 -52.5t-53.5 -22.5t-53 23t-21 52zM205 190q0 30 22.5 52.5t51.5 22.5t52 -22t23 -53q0 -30 -22 -52t-53 -22t-52.5 22.5t-21.5 51.5z" />
    <glyph glyph-name="dieresis" unicode="&#xbd;" 
d="M-12 350v89h248v247h89v-247h246v-89h-246v-246h-89v246h-248z" />
    <glyph glyph-name="ellipsis" unicode="&#xbe;" horiz-adv-x="783" 
d="M306 73q0 36 23.5 62t59.5 26t59.5 -25.5t23.5 -62.5q0 -34 -25.5 -59.5t-57.5 -25.5t-57.5 25.5t-25.5 59.5zM556 73q0 36 23.5 62t59.5 26t59.5 -25.5t23.5 -62.5q0 -34 -25.5 -59.5t-57.5 -25.5t-57.5 25.5t-25.5 59.5zM56 73q0 36 23.5 62t59.5 26t59.5 -25.5
t23.5 -62.5q0 -34 -25.5 -59.5t-57.5 -25.5t-57.5 25.5t-25.5 59.5z" />
    <glyph glyph-name="ellipsis" unicode="&#x2026;" horiz-adv-x="783" 
d="M306 73q0 36 23.5 62t59.5 26t59.5 -25.5t23.5 -62.5q0 -34 -25.5 -59.5t-57.5 -25.5t-57.5 25.5t-25.5 59.5zM556 73q0 36 23.5 62t59.5 26t59.5 -25.5t23.5 -62.5q0 -34 -25.5 -59.5t-57.5 -25.5t-57.5 25.5t-25.5 59.5zM56 73q0 36 23.5 62t59.5 26t59.5 -25.5
t23.5 -62.5q0 -34 -25.5 -59.5t-57.5 -25.5t-57.5 25.5t-25.5 59.5z" />
    <glyph glyph-name="ordfeminine" unicode="&#xbf;" horiz-adv-x="323" 
d="M234 499v-445h60v-54h-259v54h59v392h-59v53h199zM-26 660q0 30 21 52t54 22q29 0 51.5 -21.5t22.5 -52.5q0 -29 -21 -52t-53 -23q-30 0 -52.5 22.5t-22.5 52.5zM198 660q0 30 21 52t53 22q31 0 53 -22t22 -52q0 -31 -23 -53t-52 -22q-32 0 -53 23t-21 52z" />
    <glyph glyph-name="Adieresis" unicode="&#xc0;" horiz-adv-x="743" 
d="M475 196h-312l-54 -137h76v-59h-214v59h79l264 651h87l291 -651h80l-2 -59h-319v59h82zM308 554l-123 -300h266l-133 300l-2 24h-5z" />
    <glyph glyph-name="Adieresis" unicode="&#x410;" horiz-adv-x="743" 
d="M475 196h-312l-54 -137h76v-59h-214v59h79l264 651h87l291 -651h80l-2 -59h-319v59h82zM308 554l-123 -300h266l-133 300l-2 24h-5z" />
    <glyph glyph-name="Aring" unicode="&#xc1;" horiz-adv-x="683" 
d="M564 710v-143h-67v72h-218v-221h70q62 0 94 -3q64 -8 131 -48t71 -147q6 -143 -86.5 -181.5t-204.5 -38.5h-310v59h82v591h-82v60h520zM279 61h62q59 0 97 42t37 105q-1 139 -147 139h-49v-286z" />
    <glyph glyph-name="Aring" unicode="&#x411;" horiz-adv-x="683" 
d="M564 710v-143h-67v72h-218v-221h70q62 0 94 -3q64 -8 131 -48t71 -147q6 -143 -86.5 -181.5t-204.5 -38.5h-310v59h82v591h-82v60h520zM279 61h62q59 0 97 42t37 105q-1 139 -147 139h-49v-286z" />
    <glyph glyph-name="Ccedilla" unicode="&#xc2;" horiz-adv-x="683" 
d="M461 389v-6q72 -3 126.5 -46.5t57.5 -124.5q4 -95 -70.5 -153.5t-182.5 -58.5h-348v59h82v591h-82v60h331q132 0 182 -50t54 -109q3 -62 -37.5 -107.5t-112.5 -54.5zM279 61h62q64 0 109.5 41.5t42.5 105.5q-1 88 -56 113.5t-109 25.5h-49v-286zM279 408h52
q63 0 99.5 39.5t34.5 90.5q-2 44 -35 78t-101 34h-50v-242z" />
    <glyph glyph-name="Ccedilla" unicode="&#x412;" horiz-adv-x="683" 
d="M461 389v-6q72 -3 126.5 -46.5t57.5 -124.5q4 -95 -70.5 -153.5t-182.5 -58.5h-348v59h82v591h-82v60h331q132 0 182 -50t54 -109q3 -62 -37.5 -107.5t-112.5 -54.5zM279 61h62q64 0 109.5 41.5t42.5 105.5q-1 88 -56 113.5t-109 25.5h-49v-286zM279 408h52
q63 0 99.5 39.5t34.5 90.5q-2 44 -35 78t-101 34h-50v-242z" />
    <glyph glyph-name="Eacute" unicode="&#xc3;" horiz-adv-x="594" 
d="M279 639v-580h92v-59h-327v59h82v590h-82v61h535v-145h-69v74h-231z" />
    <glyph glyph-name="Eacute" unicode="&#x413;" horiz-adv-x="594" 
d="M279 639v-580h92v-59h-327v59h82v590h-82v61h535v-145h-69v74h-231z" />
    <glyph glyph-name="Ntilde" unicode="&#xc4;" horiz-adv-x="743" 
d="M424 710l237 -651h82l-2 -256h-110v197h-520v-197h-111v256h79l224 590h-78v61h84h115zM326 529l-172 -457h343l-153 459l-5 33h-7z" />
    <glyph glyph-name="Ntilde" unicode="&#x414;" horiz-adv-x="743" 
d="M424 710l237 -651h82l-2 -256h-110v197h-520v-197h-111v256h79l224 590h-78v61h84h115zM326 529l-172 -457h343l-153 459l-5 33h-7z" />
    <glyph glyph-name="Odieresis" unicode="&#xc5;" horiz-adv-x="654" 
d="M275 639v-231h222v76h57v-212h-57v74h-222v-274h285v79h54v-151h-573v59h83v591h-83v60h555v-140h-58v69h-263z" />
    <glyph glyph-name="Odieresis" unicode="&#x415;" horiz-adv-x="654" 
d="M275 639v-231h222v76h57v-212h-57v74h-222v-274h285v79h54v-151h-573v59h83v591h-83v60h555v-140h-58v69h-263z" />
    <glyph glyph-name="Udieresis" unicode="&#xc6;" horiz-adv-x="1188" 
d="M439 0v59h82v241l-63 58l-154 -265q-26 -45 -59.5 -74.5t-99.5 -33.5q-63 -1 -119 28v46q46 3 75.5 24t59.5 68l190 310l-190 189h-96v60h256v-60h-82l282 -275v275h-82v60h82h146h82v-60h-82v-275l282 275h-83v60h257v-60h-95l-192 -189l192 -310q30 -46 57.5 -68.5
t76.5 -26.5v-43q-57 -30 -120 -26q-64 3 -96 30t-62 76l-153 265l-64 -58v-241h82v-59h-310z" />
    <glyph glyph-name="Udieresis" unicode="&#x416;" horiz-adv-x="1188" 
d="M439 0v59h82v241l-63 58l-154 -265q-26 -45 -59.5 -74.5t-99.5 -33.5q-63 -1 -119 28v46q46 3 75.5 24t59.5 68l190 310l-190 189h-96v60h256v-60h-82l282 -275v275h-82v60h82h146h82v-60h-82v-275l282 275h-83v60h257v-60h-95l-192 -189l192 -310q30 -46 57.5 -68.5
t76.5 -26.5v-43q-57 -30 -120 -26q-64 3 -96 30t-62 76l-153 265l-64 -58v-241h82v-59h-310z" />
    <glyph glyph-name="aacute" unicode="&#xc7;" horiz-adv-x="624" 
d="M226 351v53h34q67 0 107 43t34 106q-6 57 -43 83.5t-90 24.5q-62 -1 -97.5 -40.5t-38.5 -93.5h-57v168h57l18 -39q65 71 181 65q94 -3 151.5 -46t65.5 -115q7 -71 -32 -111t-91 -56l-25 -3v-5l25 -4q73 -15 116 -54.5t47 -101.5q8 -88 -62 -163t-244 -74q-114 0 -178 53
v-48h-57v185h57q5 -59 48 -96t123 -34q81 3 123.5 49t34.5 117q-8 87 -63 112t-110 25h-34z" />
    <glyph glyph-name="aacute" unicode="&#x417;" horiz-adv-x="624" 
d="M226 351v53h34q67 0 107 43t34 106q-6 57 -43 83.5t-90 24.5q-62 -1 -97.5 -40.5t-38.5 -93.5h-57v168h57l18 -39q65 71 181 65q94 -3 151.5 -46t65.5 -115q7 -71 -32 -111t-91 -56l-25 -3v-5l25 -4q73 -15 116 -54.5t47 -101.5q8 -88 -62 -163t-244 -74q-114 0 -178 53
v-48h-57v185h57q5 -59 48 -96t123 -34q81 3 123.5 49t34.5 117q-8 87 -63 112t-110 25h-34z" />
    <glyph glyph-name="agrave" unicode="&#xc8;" horiz-adv-x="862" 
d="M275 197l310 427v26h-82v60h80h153h84v-60h-84v-591h84v-59h-84h-153h-80v59h82v465l-310 -426v-39h84v-59h-81h-154h-83v59h83v591h-83v60h83h154h81v-60h-84v-453z" />
    <glyph glyph-name="agrave" unicode="&#x418;" horiz-adv-x="862" 
d="M275 197l310 427v26h-82v60h80h153h84v-60h-84v-591h84v-59h-84h-153h-80v59h82v465l-310 -426v-39h84v-59h-81h-154h-83v59h83v591h-83v60h83h154h81v-60h-84v-453z" />
    <glyph glyph-name="acircumflex" unicode="&#xc9;" horiz-adv-x="862" 
d="M275 197l310 427v26h-82v60h80h153h84v-60h-84v-591h84v-59h-84h-153h-80v59h82v465l-310 -426v-39h84v-59h-81h-154h-83v59h83v591h-83v60h83h154h81v-60h-84v-453zM431 788q-75 0 -133 22t-52 102h112q-4 -12 -4 -25q0 -52 75 -52q56 0 69.5 23.5t4.5 53.5h110
q11 -124 -182 -124z" />
    <glyph glyph-name="acircumflex" unicode="&#x419;" horiz-adv-x="862" 
d="M275 197l310 427v26h-82v60h80h153h84v-60h-84v-591h84v-59h-84h-153h-80v59h82v465l-310 -426v-39h84v-59h-81h-154h-83v59h83v591h-83v60h83h154h81v-60h-84v-453zM431 788q-75 0 -133 22t-52 102h112q-4 -12 -4 -25q0 -52 75 -52q56 0 69.5 23.5t4.5 53.5h110
q11 -124 -182 -124z" />
    <glyph glyph-name="adieresis" unicode="&#xca;" horiz-adv-x="772" 
d="M268 372l285 278h-87v60h257v-60h-89l-199 -192l167 -295q32 -58 62.5 -80.5t84.5 -21.5v-61q-37 -11 -87 -15q-131 -9 -196 111l-141 254l-57 -57v-234h82v-59h-82h-152h-84v59h84v591h-84v60h84h152h82v-60h-82v-278z" />
    <glyph glyph-name="adieresis" unicode="&#x41a;" horiz-adv-x="772" 
d="M268 372l285 278h-87v60h257v-60h-89l-199 -192l167 -295q32 -58 62.5 -80.5t84.5 -21.5v-61q-37 -11 -87 -15q-131 -9 -196 111l-141 254l-57 -57v-234h82v-59h-82h-152h-84v59h84v591h-84v60h84h152h82v-60h-82v-278z" />
    <glyph glyph-name="atilde" unicode="&#xcb;" horiz-adv-x="772" 
d="M364 553l-6 -29l-173 -446q-15 -37 -39 -63t-73 -27q-31 0 -73 14l50 117q20 -20 43 -20q32 0 52 51l199 500h-79v60h81h112l243 -651h71v-59h-307v59h80l-171 465l-5 29h-5z" />
    <glyph glyph-name="atilde" unicode="&#x41b;" horiz-adv-x="772" 
d="M364 553l-6 -29l-173 -446q-15 -37 -39 -63t-73 -27q-31 0 -73 14l50 117q20 -20 43 -20q32 0 52 51l199 500h-79v60h81h112l243 -651h71v-59h-307v59h80l-171 465l-5 29h-5z" />
    <glyph glyph-name="aring" unicode="&#xcc;" horiz-adv-x="1040" 
d="M517 216l247 494h231v-60h-83v-591h83v-59h-83h-148h-83v59h83v506l-247 -502h-81l-251 502v-506h84v-59h-84h-59h-82v59h82v591h-82v60h82h143z" />
    <glyph glyph-name="aring" unicode="&#x41c;" horiz-adv-x="1040" 
d="M517 216l247 494h231v-60h-83v-591h83v-59h-83h-148h-83v59h83v506l-247 -502h-81l-251 502v-506h84v-59h-84h-59h-82v59h82v591h-82v60h82h143z" />
    <glyph glyph-name="ccedilla" unicode="&#xcd;" horiz-adv-x="877" 
d="M279 346v-287h83v-59h-80h-156h-82v59h82v591h-82v60h82h156h80v-60h-83v-242h318v242h-83v60h80h155h83v-60h-83v-591h83v-59h-83h-155h-80v59h83v287h-318z" />
    <glyph glyph-name="ccedilla" unicode="&#x41d;" horiz-adv-x="877" 
d="M279 346v-287h83v-59h-80h-156h-82v59h82v591h-82v60h82h156h80v-60h-83v-242h318v242h-83v60h80h155h83v-60h-83v-591h83v-59h-83h-155h-80v59h83v287h-318z" />
    <glyph glyph-name="eacute" unicode="&#xce;" horiz-adv-x="832" 
d="M193 355q0 -108 33 -180t84.5 -103.5t104.5 -31.5t104 30t85.5 100.5t34.5 184.5q0 112 -33 182t-84.5 101.5t-106.5 31.5q-87 0 -154.5 -76.5t-67.5 -238.5zM18 355q0 93 49.5 177.5t141.5 136.5t206 52q115 0 206 -51.5t141.5 -136.5t50.5 -178q0 -94 -50.5 -179
t-141.5 -136.5t-206 -51.5q-114 0 -206 52t-141.5 136.5t-49.5 178.5z" />
    <glyph glyph-name="eacute" unicode="&#x41e;" horiz-adv-x="832" 
d="M193 355q0 -108 33 -180t84.5 -103.5t104.5 -31.5t104 30t85.5 100.5t34.5 184.5q0 112 -33 182t-84.5 101.5t-106.5 31.5q-87 0 -154.5 -76.5t-67.5 -238.5zM18 355q0 93 49.5 177.5t141.5 136.5t206 52q115 0 206 -51.5t141.5 -136.5t50.5 -178q0 -94 -50.5 -179
t-141.5 -136.5t-206 -51.5q-114 0 -206 52t-141.5 136.5t-49.5 178.5z" />
    <glyph glyph-name="egrave" unicode="&#xcf;" horiz-adv-x="877" 
d="M279 639v-580h83v-59h-80h-156h-82v59h82v591h-82v60h82h156h312h155h83v-60h-83v-591h83v-59h-83h-155h-80v59h83v580h-318z" />
    <glyph glyph-name="egrave" unicode="&#x41f;" horiz-adv-x="877" 
d="M279 639v-580h83v-59h-80h-156h-82v59h82v591h-82v60h82h156h312h155h83v-60h-83v-591h83v-59h-83h-155h-80v59h83v580h-318z" />
    <glyph glyph-name="ecircumflex" unicode="&#xd0;" horiz-adv-x="639" 
d="M279 271v-212h85v-59h-84h-154h-82v59h82v591h-82v60h82h185q128 0 215.5 -40t87.5 -174q2 -49 -14.5 -91.5t-54 -73.5t-102 -47t-164.5 -13zM279 325q35 -4 78.5 5.5t77.5 49.5t31 123q-3 89 -57.5 121t-129.5 26v-325z" />
    <glyph glyph-name="ecircumflex" unicode="&#x420;" horiz-adv-x="639" 
d="M279 271v-212h85v-59h-84h-154h-82v59h82v591h-82v60h82h185q128 0 215.5 -40t87.5 -174q2 -49 -14.5 -91.5t-54 -73.5t-102 -47t-164.5 -13zM279 325q35 -4 78.5 5.5t77.5 49.5t31 123q-3 89 -57.5 121t-129.5 26v-325z" />
    <glyph glyph-name="edieresis" unicode="&#xd1;" horiz-adv-x="728" 
d="M671 713v-201h-59q-3 62 -57.5 106t-126.5 44q-65 0 -119 -35t-87 -108t-29 -178q5 -129 69 -211.5t181 -81.5q117 4 197 106l52 -39q-114 -121 -274 -127q-100 -4 -192 40t-148.5 128.5t-59.5 194.5q-3 103 46 191.5t139.5 137t203.5 41.5q100 -5 178 -63l34 55h52z" />
    <glyph glyph-name="edieresis" unicode="&#x421;" horiz-adv-x="728" 
d="M671 713v-201h-59q-3 62 -57.5 106t-126.5 44q-65 0 -119 -35t-87 -108t-29 -178q5 -129 69 -211.5t181 -81.5q117 4 197 106l52 -39q-114 -121 -274 -127q-100 -4 -192 40t-148.5 128.5t-59.5 194.5q-3 103 46 191.5t139.5 137t203.5 41.5q100 -5 178 -63l34 55h52z" />
    <glyph glyph-name="iacute" unicode="&#xd2;" horiz-adv-x="654" 
d="M328 0h-77h-83v59h83v591h-172v-75h-64v135h624v-135h-66v75h-170v-591h82v-59h-85h-72z" />
    <glyph glyph-name="iacute" unicode="&#x422;" horiz-adv-x="654" 
d="M328 0h-77h-83v59h83v591h-172v-75h-64v135h624v-135h-66v75h-170v-591h82v-59h-85h-72z" />
    <glyph glyph-name="igrave" unicode="&#xd3;" horiz-adv-x="683" 
d="M400 323l145 327h-81v60h219v-60h-79l-242 -546q-23 -56 -49.5 -86t-83.5 -30q-54 0 -92 24l42 97q45 -33 71 -33q39 0 62 46l9 26l-258 502h-63v60h301v-60h-85l170 -327l4 -26h6z" />
    <glyph glyph-name="igrave" unicode="&#x423;" horiz-adv-x="683" 
d="M400 323l145 327h-81v60h219v-60h-79l-242 -546q-23 -56 -49.5 -86t-83.5 -30q-54 0 -92 24l42 97q45 -33 71 -33q39 0 62 46l9 26l-258 502h-63v60h301v-60h-85l170 -327l4 -26h6z" />
    <glyph glyph-name="icircumflex" unicode="&#xd4;" horiz-adv-x="951" 
d="M479 -32h-76h-85v59h85v66q-113 -1 -196 34t-128.5 100t-45.5 145q1 142 117.5 205t252.5 63v46h-85v60h85h147h81v-60h-81v-46q134 0 250 -63.5t116 -204.5q0 -82 -44.5 -145.5t-126.5 -99.5t-195 -34v-66h81v-59h-81h-71zM550 593v-450q73 -6 132.5 40.5t58.5 183.5
q-1 136 -60.5 183t-130.5 43zM403 593q-74 4 -132.5 -43t-59.5 -183t58.5 -183t133.5 -41v450z" />
    <glyph glyph-name="icircumflex" unicode="&#x424;" horiz-adv-x="951" 
d="M479 -32h-76h-85v59h85v66q-113 -1 -196 34t-128.5 100t-45.5 145q1 142 117.5 205t252.5 63v46h-85v60h85h147h81v-60h-81v-46q134 0 250 -63.5t116 -204.5q0 -82 -44.5 -145.5t-126.5 -99.5t-195 -34v-66h81v-59h-81h-71zM550 593v-450q73 -6 132.5 40.5t58.5 183.5
q-1 136 -60.5 183t-130.5 43zM403 593q-74 4 -132.5 -43t-59.5 -183t58.5 -183t133.5 -41v450z" />
    <glyph glyph-name="idieresis" unicode="&#xd5;" horiz-adv-x="832" 
d="M428 454l147 196h-82v60h235v-60h-85l-184 -240l257 -351h90v-59h-347v59h81l-175 244l-186 -244h78v-59h-231v59h82l218 288l-218 303h-67v60h324v-60h-83z" />
    <glyph glyph-name="idieresis" unicode="&#x425;" horiz-adv-x="832" 
d="M428 454l147 196h-82v60h235v-60h-85l-184 -240l257 -351h90v-59h-347v59h81l-175 244l-186 -244h78v-59h-231v59h82l218 288l-218 303h-67v60h324v-60h-83z" />
    <glyph glyph-name="ntilde" unicode="&#xd6;" horiz-adv-x="862" 
d="M279 72h306v578h-82v60h78h155h84v-60h-84v-591h94v-256h-120v197h-584h-82v59h82v591h-82v60h82h153h83v-60h-83v-578z" />
    <glyph glyph-name="ntilde" unicode="&#x426;" horiz-adv-x="862" 
d="M279 72h306v578h-82v60h78h155h84v-60h-84v-591h94v-256h-120v197h-584h-82v59h82v591h-82v60h82h153h83v-60h-83v-578z" />
    <glyph glyph-name="oacute" unicode="&#xd7;" horiz-adv-x="772" 
d="M493 357v293h-83v60h318v-60h-83v-591h83v-59h-318v59h83v239q-123 -39 -199 -39q-210 0 -210 174v217h-75v60h309v-60h-82v-210q0 -111 97 -117q34 -1 81 9.5t79 24.5z" />
    <glyph glyph-name="oacute" unicode="&#x427;" horiz-adv-x="772" 
d="M493 357v293h-83v60h318v-60h-83v-591h83v-59h-318v59h83v239q-123 -39 -199 -39q-210 0 -210 174v217h-75v60h309v-60h-82v-210q0 -111 97 -117q34 -1 81 9.5t79 24.5z" />
    <glyph glyph-name="ograve" unicode="&#xd8;" horiz-adv-x="1188" 
d="M603 0h-477h-82v59h82v591h-82v60h82h152h84v-60h-83v-578h242v578h-83v60h83h146h89v-60h-83v-578h236v578h-83v60h84h150h84v-60h-84v-591h84v-59h-84h-457z" />
    <glyph glyph-name="ograve" unicode="&#x428;" horiz-adv-x="1188" 
d="M603 0h-477h-82v59h82v591h-82v60h82h152h84v-60h-83v-578h242v578h-83v60h83h146h89v-60h-83v-578h236v578h-83v60h84h150h84v-60h-84v-591h84v-59h-84h-457z" />
    <glyph glyph-name="ocircumflex" unicode="&#xd9;" horiz-adv-x="1188" 
d="M603 0h-477h-82v59h82v591h-82v60h82h152h84v-60h-83v-578h242v578h-83v60h83h146h89v-60h-83v-578h236v578h-83v60h84h150h84v-60h-84v-591h97v-257h-119v198h-435z" />
    <glyph glyph-name="ocircumflex" unicode="&#x429;" horiz-adv-x="1188" 
d="M603 0h-477h-82v59h82v591h-82v60h82h152h84v-60h-83v-578h242v578h-83v60h83h146h89v-60h-83v-578h236v578h-83v60h84h150h84v-60h-84v-591h97v-257h-119v198h-435z" />
    <glyph glyph-name="odieresis" unicode="&#xda;" horiz-adv-x="803" 
d="M265 59v580h-181v-139h-69v210h484v-60h-83v-242h101q40 0 96.5 -11t110.5 -55t54 -134q2 -92 -67 -150t-232 -58h-299v59h85zM416 61l63 -2q64 0 106 43t39 106q-3 89 -54.5 114t-102.5 25h-51v-286z" />
    <glyph glyph-name="odieresis" unicode="&#x42a;" horiz-adv-x="803" 
d="M265 59v580h-181v-139h-69v210h484v-60h-83v-242h101q40 0 96.5 -11t110.5 -55t54 -134q2 -92 -67 -150t-232 -58h-299v59h85zM416 61l63 -2q64 0 106 43t39 106q-3 89 -54.5 114t-102.5 25h-51v-286z" />
    <glyph glyph-name="otilde" unicode="&#xdb;" horiz-adv-x="1040" 
d="M126 59v591h-82v60h318v-60h-83v-242h96q38 0 94.5 -11t112 -56t56.5 -133q0 -208 -299 -208h-295v59h82zM279 59h61q62 0 103.5 42.5t40.5 106.5q-3 63 -33.5 93t-63.5 38t-59 8h-49v-288zM760 59v591h-83v60h318v-60h-83v-591h83v-59h-318v59h83z" />
    <glyph glyph-name="otilde" unicode="&#x42b;" horiz-adv-x="1040" 
d="M126 59v591h-82v60h318v-60h-83v-242h96q38 0 94.5 -11t112 -56t56.5 -133q0 -208 -299 -208h-295v59h82zM279 59h61q62 0 103.5 42.5t40.5 106.5q-3 63 -33.5 93t-63.5 38t-59 8h-49v-288zM760 59v591h-83v60h318v-60h-83v-591h83v-59h-318v59h83z" />
    <glyph glyph-name="uacute" unicode="&#xdc;" horiz-adv-x="654" 
d="M126 59v591h-82v60h318v-60h-83v-242h90q41 0 97.5 -11t110 -55t54.5 -134q2 -92 -67 -150t-232 -58h-288v59h82zM279 59h53q65 0 106 43t38 106q-3 89 -54.5 114t-101.5 25h-41v-288z" />
    <glyph glyph-name="uacute" unicode="&#x42c;" horiz-adv-x="654" 
d="M126 59v591h-82v60h318v-60h-83v-242h90q41 0 97.5 -11t110 -55t54.5 -134q2 -92 -67 -150t-232 -58h-288v59h82zM279 59h53q65 0 106 43t38 106q-3 89 -54.5 114t-101.5 25h-41v-288z" />
    <glyph glyph-name="ugrave" unicode="&#xdd;" horiz-adv-x="745" 
d="M240 335v60h295q-11 135 -77.5 201.5t-157.5 64.5q-72 -1 -124 -44.5t-75 -112.5h-53l-1 200h52l41 -48q91 67 214 65q100 -1 181 -44.5t128 -121.5t47 -179q3 -146 -96 -263.5t-291 -124.5q-184 -8 -288 113l56 54q67 -110 202 -111q138 0 191.5 94.5t51.5 196.5h-296z
" />
    <glyph glyph-name="ugrave" unicode="&#x42d;" horiz-adv-x="745" 
d="M240 335v60h295q-11 135 -77.5 201.5t-157.5 64.5q-72 -1 -124 -44.5t-75 -112.5h-53l-1 200h52l41 -48q91 67 214 65q100 -1 181 -44.5t128 -121.5t47 -179q3 -146 -96 -263.5t-291 -124.5q-184 -8 -288 113l56 54q67 -110 202 -111q138 0 191.5 94.5t51.5 196.5h-296z
" />
    <glyph glyph-name="ucircumflex" unicode="&#xde;" horiz-adv-x="1248" 
d="M279 650v-242h142q20 101 74.5 170.5t138.5 106t186 36.5q50 0 136.5 -20t172.5 -101.5t86 -244.5q0 -73 -26 -139.5t-76.5 -117.5t-124 -80.5t-168.5 -29.5q-107 0 -195.5 40.5t-144 124.5t-59.5 196h-142v-290h83v-59h-87h-149h-82v59h82v591h-82v60h82h149h87v-60h-83
zM597 355q0 -112 33.5 -183.5t85 -102.5t104.5 -31q88 0 154 77.5t66 239.5q0 112 -33 182t-82.5 101.5t-104.5 31.5q-87 0 -155 -76.5t-68 -238.5z" />
    <glyph glyph-name="ucircumflex" unicode="&#x42e;" horiz-adv-x="1248" 
d="M279 650v-242h142q20 101 74.5 170.5t138.5 106t186 36.5q50 0 136.5 -20t172.5 -101.5t86 -244.5q0 -73 -26 -139.5t-76.5 -117.5t-124 -80.5t-168.5 -29.5q-107 0 -195.5 40.5t-144 124.5t-59.5 196h-142v-290h83v-59h-87h-149h-82v59h82v591h-82v60h82h149h87v-60h-83
zM597 355q0 -112 33.5 -183.5t85 -102.5t104.5 -31q88 0 154 77.5t66 239.5q0 112 -33 182t-82.5 101.5t-104.5 31.5q-87 0 -155 -76.5t-68 -238.5z" />
    <glyph glyph-name="udieresis" unicode="&#xdf;" horiz-adv-x="743" 
d="M614 650v-591h85v-59h-85h-152h-83v59h85v227q-53 5 -74.5 -11.5t-39.5 -52.5l-93 -179q-30 -55 -109 -55q-64 -1 -126 12v61q5 0 9.5 0.5t11.5 0.5q27 2 40 11q21 11 51 61l66 116q32 55 75 62v6q-39 6 -78 30.5t-64.5 64t-25.5 91.5q0 55 29.5 101.5t87 75.5t138.5 29
h252h85v-60h-85zM464 650q-186 18 -195 -146q-4 -97 46.5 -132.5t148.5 -28.5v307z" />
    <glyph glyph-name="udieresis" unicode="&#x42f;" horiz-adv-x="743" 
d="M614 650v-591h85v-59h-85h-152h-83v59h85v227q-53 5 -74.5 -11.5t-39.5 -52.5l-93 -179q-30 -55 -109 -55q-64 -1 -126 12v61q5 0 9.5 0.5t11.5 0.5q27 2 40 11q21 11 51 61l66 116q32 55 75 62v6q-39 6 -78 30.5t-64.5 64t-25.5 91.5q0 55 29.5 101.5t87 75.5t138.5 29
h252h85v-60h-85zM464 650q-186 18 -195 -146q-4 -97 46.5 -132.5t148.5 -28.5v307z" />
    <glyph glyph-name="daggerdbl" unicode="&#xe0;" horiz-adv-x="579" 
d="M486 54h60v-54h-200v41q-55 -57 -138 -53q-73 5 -124.5 52.5t-51.5 118.5q0 73 51 120t125 50q82 4 138 -54v104q0 76 -71 83q-86 9 -149 -66l-54 68q48 28 97.5 37.5t104.5 9.5q212 0 212 -132v-325zM346 224q-25 42 -71 44q-37 0 -67 -27t-30 -82q0 -56 30 -83.5
t67 -25.5q43 0 71 41v133z" />
    <glyph glyph-name="daggerdbl" unicode="&#x2021;" horiz-adv-x="579" 
d="M486 54h60v-54h-200v41q-55 -57 -138 -53q-73 5 -124.5 52.5t-51.5 118.5q0 73 51 120t125 50q82 4 138 -54v104q0 76 -71 83q-86 9 -149 -66l-54 68q48 28 97.5 37.5t104.5 9.5q212 0 212 -132v-325zM346 224q-25 42 -71 44q-37 0 -67 -27t-30 -82q0 -56 30 -83.5
t67 -25.5q43 0 71 41v133z" />
    <glyph glyph-name="daggerdbl" unicode="&#x430;" horiz-adv-x="579" 
d="M486 54h60v-54h-200v41q-55 -57 -138 -53q-73 5 -124.5 52.5t-51.5 118.5q0 73 51 120t125 50q82 4 138 -54v104q0 76 -71 83q-86 9 -149 -66l-54 68q48 28 97.5 37.5t104.5 9.5q212 0 212 -132v-325zM346 224q-25 42 -71 44q-37 0 -67 -27t-30 -82q0 -56 30 -83.5
t67 -25.5q43 0 71 41v133z" />
    <glyph glyph-name="periodcentered" unicode="&#xe1;" horiz-adv-x="614" 
d="M449 718h73q5 -80 -46 -102.5t-133 -22.5q-54 0 -82 -2q-93 -6 -121 -67t-25 -124l7 -2q15 37 59.5 74.5t133.5 38.5q116 3 182.5 -65.5t69.5 -190.5q1 -80 -31 -140.5t-90.5 -93.5t-136.5 -33q-79 0 -138.5 37t-93 106.5t-36.5 166.5q-5 248 85.5 319t201.5 71
q50 0 77 1q22 5 31 9.5t13 19.5zM190 260q0 -106 33.5 -168t84.5 -60q52 0 82 63.5t28 164.5q0 91 -28 149t-82 58q-53 0 -85 -54.5t-33 -152.5z" />
    <glyph glyph-name="periodcentered" unicode="&#x431;" horiz-adv-x="614" 
d="M449 718h73q5 -80 -46 -102.5t-133 -22.5q-54 0 -82 -2q-93 -6 -121 -67t-25 -124l7 -2q15 37 59.5 74.5t133.5 38.5q116 3 182.5 -65.5t69.5 -190.5q1 -80 -31 -140.5t-90.5 -93.5t-136.5 -33q-79 0 -138.5 37t-93 106.5t-36.5 166.5q-5 248 85.5 319t201.5 71
q50 0 77 1q22 5 31 9.5t13 19.5zM190 260q0 -106 33.5 -168t84.5 -60q52 0 82 63.5t28 164.5q0 91 -28 149t-82 58q-53 0 -85 -54.5t-33 -152.5z" />
    <glyph glyph-name="quotesinglbase" unicode="&#xe2;" horiz-adv-x="586" 
d="M91 54v392h-59v53h289q62 0 122 -21t64 -88q1 -33 -17.5 -59t-50.5 -40.5t-68 -12.5v-9q66 0 117 -33t51 -99q1 -77 -51 -107t-144 -30h-312v54h59zM225 54h57q60 0 87 31t24 74q-3 42 -33 66.5t-78 24.5h-57v-196zM225 301h57q97 0 93 77q-1 43 -29 55.5t-52 12.5h-69
v-145z" />
    <glyph glyph-name="quotesinglbase" unicode="&#x201a;" horiz-adv-x="586" 
d="M91 54v392h-59v53h289q62 0 122 -21t64 -88q1 -33 -17.5 -59t-50.5 -40.5t-68 -12.5v-9q66 0 117 -33t51 -99q1 -77 -51 -107t-144 -30h-312v54h59zM225 54h57q60 0 87 31t24 74q-3 42 -33 66.5t-78 24.5h-57v-196zM225 301h57q97 0 93 77q-1 43 -29 55.5t-52 12.5h-69
v-145z" />
    <glyph glyph-name="quotesinglbase" unicode="&#x432;" horiz-adv-x="586" 
d="M91 54v392h-59v53h289q62 0 122 -21t64 -88q1 -33 -17.5 -59t-50.5 -40.5t-68 -12.5v-9q66 0 117 -33t51 -99q1 -77 -51 -107t-144 -30h-312v54h59zM225 54h57q60 0 87 31t24 74q-3 42 -33 66.5t-78 24.5h-57v-196zM225 301h57q97 0 93 77q-1 43 -29 55.5t-52 12.5h-69
v-145z" />
    <glyph glyph-name="quotedblbase" unicode="&#xe3;" horiz-adv-x="459" 
d="M440 499v-140h-73v87h-136v-392h69v-54h-268v54h59v392h-59v53h408z" />
    <glyph glyph-name="quotedblbase" unicode="&#x201e;" horiz-adv-x="459" 
d="M440 499v-140h-73v87h-136v-392h69v-54h-268v54h59v392h-59v53h408z" />
    <glyph glyph-name="quotedblbase" unicode="&#x433;" horiz-adv-x="459" 
d="M440 499v-140h-73v87h-136v-392h69v-54h-268v54h59v392h-59v53h408z" />
    <glyph glyph-name="perthousand" unicode="&#xe4;" horiz-adv-x="610" 
d="M359 505l170 -451h62v-222h-102v168h-369v-168h-102v222h76l142 397h-63v54h186zM266 374l-109 -320h229l-108 320l-4 30h-5z" />
    <glyph glyph-name="perthousand" unicode="&#x2030;" horiz-adv-x="610" 
d="M359 505l170 -451h62v-222h-102v168h-369v-168h-102v222h76l142 397h-63v54h186zM266 374l-109 -320h229l-108 320l-4 30h-5z" />
    <glyph glyph-name="perthousand" unicode="&#x434;" horiz-adv-x="610" 
d="M359 505l170 -451h62v-222h-102v168h-369v-168h-102v222h76l142 397h-63v54h186zM266 374l-109 -320h229l-108 320l-4 30h-5z" />
    <glyph glyph-name="Acircumflex" unicode="&#xe5;" horiz-adv-x="539" 
d="M508 244h-330q-1 -105 46.5 -157t111.5 -44q77 8 128 94l44 -46q-93 -111 -225 -103q-74 5 -131.5 40t-90 95t-32.5 134q0 73 31 130.5t88.5 90.5t130.5 33q77 0 131 -38t79.5 -101t18.5 -128zM178 298h193q3 55 -9 93t-34.5 57t-49.5 19q-43 0 -72 -42.5t-28 -126.5z
" />
    <glyph glyph-name="Acircumflex" unicode="&#x435;" horiz-adv-x="539" 
d="M508 244h-330q-1 -105 46.5 -157t111.5 -44q77 8 128 94l44 -46q-93 -111 -225 -103q-74 5 -131.5 40t-90 95t-32.5 134q0 73 31 130.5t88.5 90.5t130.5 33q77 0 131 -38t79.5 -101t18.5 -128zM178 298h193q3 55 -9 93t-34.5 57t-49.5 19q-43 0 -72 -42.5t-28 -126.5z
" />
    <glyph glyph-name="Ecircumflex" unicode="&#xe6;" horiz-adv-x="909" 
d="M459 0h-63h-61v51h61v134l-50 51l-122 -185q-22 -32 -54.5 -47.5t-47.5 -15.5q-54 -10 -104 12v51q36 3 59.5 23.5t55.5 65.5l127 178l-127 129h-78v52h205v-53l-60 1l196 -195v195h-61v52h235v-52h-59v-195l196 195h-61v52h206v-52h-80l-126 -129l126 -178
q25 -34 39.5 -49.5t34 -27t42.5 -12.5v-51q-49 -23 -104 -12q-14 0 -46 14.5t-55 48.5l-123 185l-49 -51v-134h59v-51h-59h-52z" />
    <glyph glyph-name="Ecircumflex" unicode="&#x436;" horiz-adv-x="909" 
d="M459 0h-63h-61v51h61v134l-50 51l-122 -185q-22 -32 -54.5 -47.5t-47.5 -15.5q-54 -10 -104 12v51q36 3 59.5 23.5t55.5 65.5l127 178l-127 129h-78v52h205v-53l-60 1l196 -195v195h-61v52h235v-52h-59v-195l196 195h-61v52h206v-52h-80l-126 -129l126 -178
q25 -34 39.5 -49.5t34 -27t42.5 -12.5v-51q-49 -23 -104 -12q-14 0 -46 14.5t-55 48.5l-123 185l-49 -51v-134h59v-51h-59h-52z" />
    <glyph glyph-name="Aacute" unicode="&#xe7;" horiz-adv-x="510" 
d="M66 354v145h50v-25l-7 -13l6 -3l7 12q42 42 140 41q87 -1 128.5 -38.5t45.5 -82.5q8 -59 -34.5 -93.5t-86.5 -36.5h-18v-6l18 -2q29 0 63 -8t61.5 -34t27.5 -74q0 -59 -53 -103.5t-193 -44.5q-120 0 -192 68l41 73q26 -52 59.5 -70.5t79.5 -18.5q49 1 79.5 27t29.5 72
q-3 94 -130 94h-6v42h6q67 0 96 33.5t25 74.5q-3 36 -27.5 55.5t-59.5 19.5q-43 0 -74.5 -25t-31.5 -79h-50z" />
    <glyph glyph-name="Aacute" unicode="&#x437;" horiz-adv-x="510" 
d="M66 354v145h50v-25l-7 -13l6 -3l7 12q42 42 140 41q87 -1 128.5 -38.5t45.5 -82.5q8 -59 -34.5 -93.5t-86.5 -36.5h-18v-6l18 -2q29 0 63 -8t61.5 -34t27.5 -74q0 -59 -53 -103.5t-193 -44.5q-120 0 -192 68l41 73q26 -52 59.5 -70.5t79.5 -18.5q49 1 79.5 27t29.5 72
q-3 94 -130 94h-6v42h6q67 0 96 33.5t25 74.5q-3 36 -27.5 55.5t-59.5 19.5q-43 0 -74.5 -25t-31.5 -79h-50z" />
    <glyph glyph-name="Edieresis" unicode="&#xe8;" horiz-adv-x="661" 
d="M233 176l189 264v6h-58v53h258v-53h-59v-392h59v-54h-258v54h58v308l-189 -261v-47h61v-54h-259v54h59v392h-59v53h258v-53h-60v-270z" />
    <glyph glyph-name="Edieresis" unicode="&#x438;" horiz-adv-x="661" 
d="M233 176l189 264v6h-58v53h258v-53h-59v-392h59v-54h-258v54h58v308l-189 -261v-47h61v-54h-259v54h59v392h-59v53h258v-53h-60v-270z" />
    <glyph glyph-name="Egrave" unicode="&#xe9;" horiz-adv-x="661" 
d="M233 176l189 264v6h-58v53h258v-53h-59v-392h59v-54h-258v54h58v308l-189 -261v-47h61v-54h-259v54h59v392h-59v53h258v-53h-60v-270zM182 688h97q-4 -44 13.5 -61t36.5 -17q20 0 37.5 18.5t12.5 59.5h97q4 -53 -42 -90t-105 -37t-105 37.5t-42 89.5z" />
    <glyph glyph-name="Egrave" unicode="&#x439;" horiz-adv-x="661" 
d="M233 176l189 264v6h-58v53h258v-53h-59v-392h59v-54h-258v54h58v308l-189 -261v-47h61v-54h-259v54h59v392h-59v53h258v-53h-60v-270zM182 688h97q-4 -44 13.5 -61t36.5 -17q20 0 37.5 18.5t12.5 59.5h97q4 -53 -42 -90t-105 -37t-105 37.5t-42 89.5z" />
    <glyph glyph-name="Iacute" unicode="&#xea;" horiz-adv-x="625" 
d="M228 262l190 184h-57v53h200v-53h-71l-111 -106l160 -250q21 -35 69 -39v-51q-41 -12 -69 -12q-66 -4 -102 22.5t-63 69.5l-94 163l-52 -50v-139h59v-54h-258v54h60v392h-60v53h258v-53h-59v-184z" />
    <glyph glyph-name="Iacute" unicode="&#x43a;" horiz-adv-x="625" 
d="M228 262l190 184h-57v53h200v-53h-71l-111 -106l160 -250q21 -35 69 -39v-51q-41 -12 -69 -12q-66 -4 -102 22.5t-63 69.5l-94 163l-52 -50v-139h59v-54h-258v54h60v392h-60v53h258v-53h-59v-184z" />
    <glyph glyph-name="Icircumflex" unicode="&#xeb;" horiz-adv-x="622" 
d="M289 374l-116 -301q-15 -39 -32.5 -60.5t-56.5 -24.5q-18 0 -35 5t-29 9v105q19 -23 55 -23q34 0 49.5 20t25.5 53l110 294h-98v54h217l163 -451h60v-54h-266v54h62l-97 320l-3 30h-5z" />
    <glyph glyph-name="Icircumflex" unicode="&#x43b;" horiz-adv-x="622" 
d="M289 374l-116 -301q-15 -39 -32.5 -60.5t-56.5 -24.5q-18 0 -35 5t-29 9v105q19 -23 55 -23q34 0 49.5 20t25.5 53l110 294h-98v54h217l163 -451h60v-54h-266v54h62l-97 320l-3 30h-5z" />
    <glyph glyph-name="Idieresis" unicode="&#xec;" horiz-adv-x="752" 
d="M374 179l1 -22h6l4 22l140 320h188v-53h-59v-392h59v-54h-247v54h59v329l4 27h-5l-7 -27l-155 -343h-47l-158 345l-6 25h-6l3 -25v-331h63v-54h-176v54h59v392h-59v53h189z" />
    <glyph glyph-name="Idieresis" unicode="&#x43c;" horiz-adv-x="752" 
d="M374 179l1 -22h6l4 22l140 320h188v-53h-59v-392h59v-54h-247v54h59v329l4 27h-5l-7 -27l-155 -343h-47l-158 345l-6 25h-6l3 -25v-331h63v-54h-176v54h59v392h-59v53h189z" />
    <glyph glyph-name="Igrave" unicode="&#xed;" horiz-adv-x="650" 
d="M234 243v-189h51v-54h-250v54h59v392h-59v53h250v-53h-51v-149h177v149h-49v53h250v-53h-59v-392h59v-54h-250v54h49v189h-177z" />
    <glyph glyph-name="Igrave" unicode="&#x43d;" horiz-adv-x="650" 
d="M234 243v-189h51v-54h-250v54h59v392h-59v53h250v-53h-51v-149h177v149h-49v53h250v-53h-59v-392h59v-54h-250v54h49v189h-177z" />
    <glyph glyph-name="Oacute" unicode="&#xee;" horiz-adv-x="596" 
d="M186 250q0 -218 110 -218q37 0 72 42t35 176t-35 175t-72 41q-110 0 -110 -216zM38 250q0 111 77 186t181 75q66 0 125 -34t94.5 -93t35.5 -134q0 -112 -77 -187t-178 -75q-103 0 -180.5 76t-77.5 186z" />
    <glyph glyph-name="Oacute" unicode="&#x43e;" horiz-adv-x="596" 
d="M186 250q0 -218 110 -218q37 0 72 42t35 176t-35 175t-72 41q-110 0 -110 -216zM38 250q0 111 77 186t181 75q66 0 125 -34t94.5 -93t35.5 -134q0 -112 -77 -187t-178 -75q-103 0 -180.5 76t-77.5 186z" />
    <glyph glyph-name="Ocircumflex" unicode="&#xef;" horiz-adv-x="640" 
d="M237 446v-392h50v-54h-249v54h60v392h-60v53h561v-53h-60v-392h60v-54h-250v54h51v392h-163z" />
    <glyph glyph-name="Ocircumflex" unicode="&#x43f;" horiz-adv-x="640" 
d="M237 446v-392h50v-54h-249v54h60v392h-60v53h561v-53h-60v-392h60v-54h-250v54h51v392h-163z" />
    <glyph glyph-name="apple" unicode="&#xf0;" horiz-adv-x="634" 
d="M237 -152h68v-53h-267v53h60v598h-60v53h199v-40l-4 -24h6q31 76 130 76q61 0 111 -29.5t79 -86t30 -138.5q4 -123 -57 -195t-163 -74q-99 0 -130 75h-6l4 -23v-192zM234 250v-56q1 -78 30.5 -109t64.5 -31q45 -2 77 39.5t32 156.5q0 78 -16.5 121t-41 59t-51.5 16
q-35 0 -64.5 -31.5t-30.5 -110.5v-54z" />
    <glyph glyph-name="apple" unicode="&#x440;" horiz-adv-x="634" 
d="M237 -152h68v-53h-267v53h60v598h-60v53h199v-40l-4 -24h6q31 76 130 76q61 0 111 -29.5t79 -86t30 -138.5q4 -123 -57 -195t-163 -74q-99 0 -130 75h-6l4 -23v-192zM234 250v-56q1 -78 30.5 -109t64.5 -31q45 -2 77 39.5t32 156.5q0 78 -16.5 121t-41 59t-51.5 16
q-35 0 -64.5 -31.5t-30.5 -110.5v-54z" />
    <glyph glyph-name="Ograve" unicode="&#xf1;" horiz-adv-x="538" 
d="M497 499l2 -168h-63q-10 68 -41 98t-69 30q-37 3 -71 -22.5t-52 -78t-17 -124.5q3 -106 48 -155t105 -49q57 3 126 72l32 -52q-59 -62 -183 -62q-123 0 -198.5 71.5t-77.5 186.5q-2 66 26 126.5t82.5 98t131.5 40.5q90 2 150 -50l4 -17h6l-2 18l-1 37h62z" />
    <glyph glyph-name="Ograve" unicode="&#x441;" horiz-adv-x="538" 
d="M497 499l2 -168h-63q-10 68 -41 98t-69 30q-37 3 -71 -22.5t-52 -78t-17 -124.5q3 -106 48 -155t105 -49q57 3 126 72l32 -52q-59 -62 -183 -62q-123 0 -198.5 71.5t-77.5 186.5q-2 66 26 126.5t82.5 98t131.5 40.5q90 2 150 -50l4 -17h6l-2 18l-1 37h62z" />
    <glyph glyph-name="Uacute" unicode="&#xf2;" horiz-adv-x="531" 
d="M125 0v54h69v392h-95v-87h-75v140h481v-140h-76v87h-96v-392h70v-54h-278z" />
    <glyph glyph-name="Uacute" unicode="&#x442;" horiz-adv-x="531" 
d="M125 0v54h69v392h-95v-87h-75v140h481v-140h-76v87h-96v-392h70v-54h-278z" />
    <glyph glyph-name="Ucircumflex" unicode="&#xf3;" horiz-adv-x="614" 
d="M350 191l8 -34h6l5 34l106 255h-59v53h178v-53h-61l-235 -571q-21 -49 -48.5 -72t-71.5 -23q-38 0 -67 22l37 89q32 -30 57 -30q28 0 43 37l41 100l-224 448h-45v53h266v-53h-60z" />
    <glyph glyph-name="Ucircumflex" unicode="&#x443;" horiz-adv-x="614" 
d="M350 191l8 -34h6l5 34l106 255h-59v53h178v-53h-61l-235 -571q-21 -49 -48.5 -72t-71.5 -23q-38 0 -67 22l37 89q32 -30 57 -30q28 0 43 37l41 100l-224 448h-45v53h266v-53h-60z" />
    <glyph glyph-name="Ugrave" unicode="&#xf4;" horiz-adv-x="810" 
d="M464 250v-56q0 -139 79 -140q92 -6 92 196q0 198 -92 196q-79 -2 -79 -142v-54zM346 250v54q0 49 -15 95t-65 47q-95 2 -95 -196q0 -202 95 -196q50 1 65 46.5t15 93.5v56zM282 -220v54h59l3 214l3 15h-6q-28 -76 -115 -76q-80 2 -137 68t-54 202q3 90 30.5 145.5
t70.5 82t90 26.5q87 0 115 -76h6l-3 15l-3 200h-59v54h184v-245l-4 -24h5q29 76 114 76q48 0 91 -26.5t71 -82.5t29 -145q4 -135 -52.5 -201.5t-137.5 -68.5q-89 0 -115 76h-5l4 -23v-206h59v-54h-243z" />
    <glyph glyph-name="Ugrave" unicode="&#x444;" horiz-adv-x="810" 
d="M464 250v-56q0 -139 79 -140q92 -6 92 196q0 198 -92 196q-79 -2 -79 -142v-54zM346 250v54q0 49 -15 95t-65 47q-95 2 -95 -196q0 -202 95 -196q50 1 65 46.5t15 93.5v56zM282 -220v54h59l3 214l3 15h-6q-28 -76 -115 -76q-80 2 -137 68t-54 202q3 90 30.5 145.5
t70.5 82t90 26.5q87 0 115 -76h6l-3 15l-3 200h-59v54h184v-245l-4 -24h5q29 76 114 76q48 0 91 -26.5t71 -82.5t29 -145q4 -135 -52.5 -201.5t-137.5 -68.5q-89 0 -115 76h-5l4 -23v-206h59v-54h-243z" />
    <glyph glyph-name="dotlessi" unicode="&#xf5;" horiz-adv-x="610" 
d="M321 331l99 115h-63v53h194v-53h-62l-135 -159l170 -233h49v-54h-276v54h60l-91 131l-114 -131h87v-54h-207v54h52l150 174l-150 218h-49v53h262v-53h-58z" />
    <glyph glyph-name="dotlessi" unicode="&#x445;" horiz-adv-x="610" 
d="M321 331l99 115h-63v53h194v-53h-62l-135 -159l170 -233h49v-54h-276v54h60l-91 131l-114 -131h87v-54h-207v54h52l150 174l-150 218h-49v53h262v-53h-58z" />
    <glyph glyph-name="circumflex" unicode="&#xf6;" horiz-adv-x="640" 
d="M393 54v392h-50v53h250v-53h-60v-392h80v-224h-105v170h-476v54h59v392h-59v53h250v-53h-51v-392h162z" />
    <glyph glyph-name="circumflex" unicode="&#x446;" horiz-adv-x="640" 
d="M393 54v392h-50v53h250v-53h-60v-392h80v-224h-105v170h-476v54h59v392h-59v53h250v-53h-51v-392h162z" />
    <glyph glyph-name="circumflex" unicode="&#x2c6;" horiz-adv-x="640" 
d="M393 54v392h-50v53h250v-53h-60v-392h80v-224h-105v170h-476v54h59v392h-59v53h250v-53h-51v-392h162z" />
    <glyph glyph-name="tilde" unicode="&#xf7;" horiz-adv-x="594" 
d="M365 269v177h-40v53h239v-53h-59v-392h59v-54h-267v54h68v161q-89 -44 -175 -30q-43 12 -77.5 36t-34.5 88v137h-54v53h238v-53h-43v-131q0 -49 31 -61.5t47 -7.5q14 1 26 5t25.5 10.5t16.5 7.5z" />
    <glyph glyph-name="tilde" unicode="&#x447;" horiz-adv-x="594" 
d="M365 269v177h-40v53h239v-53h-59v-392h59v-54h-267v54h68v161q-89 -44 -175 -30q-43 12 -77.5 36t-34.5 88v137h-54v53h238v-53h-43v-131q0 -49 31 -61.5t47 -7.5q14 1 26 5t25.5 10.5t16.5 7.5z" />
    <glyph glyph-name="tilde" unicode="&#x2dc;" horiz-adv-x="594" 
d="M365 269v177h-40v53h239v-53h-59v-392h59v-54h-267v54h68v161q-89 -44 -175 -30q-43 12 -77.5 36t-34.5 88v137h-54v53h238v-53h-43v-131q0 -49 31 -61.5t47 -7.5q14 1 26 5t25.5 10.5t16.5 7.5z" />
    <glyph glyph-name="macron" unicode="&#xf8;" horiz-adv-x="912" 
d="M35 0v54h59v392h-59v53h250v-53h-51v-392h151v392h-52v53h241v-53h-50v-392h150v392h-50v53h249v-53h-60v-392h60v-54h-838z" />
    <glyph glyph-name="macron" unicode="&#x448;" horiz-adv-x="912" 
d="M35 0v54h59v392h-59v53h250v-53h-51v-392h151v392h-52v53h241v-53h-50v-392h150v392h-50v53h249v-53h-60v-392h60v-54h-838z" />
    <glyph glyph-name="breve" unicode="&#xf9;" horiz-adv-x="916" 
d="M35 0v54h59v392h-59v53h250v-53h-51v-392h151v392h-52v53h241v-53h-50v-392h150v392h-50v53h249v-53h-60v-392h83v-224h-105v170h-756z" />
    <glyph glyph-name="breve" unicode="&#x449;" horiz-adv-x="916" 
d="M35 0v54h59v392h-59v53h250v-53h-51v-392h151v392h-52v53h241v-53h-50v-392h150v392h-50v53h249v-53h-60v-392h83v-224h-105v170h-756z" />
    <glyph glyph-name="dotaccent" unicode="&#xfa;" horiz-adv-x="678" 
d="M221 446h-119v-88h-73v142l400 -1v-53h-68v-146h103q94 0 139 -47t43 -106q0 -60 -46.5 -103.5t-141.5 -43.5h-296v54h59v392zM361 54h18q13 0 26.5 -0.5t23.5 2.5q28 8 48 33.5t20 57.5q0 106 -136 93v-186z" />
    <glyph glyph-name="dotaccent" unicode="&#x44a;" horiz-adv-x="678" 
d="M221 446h-119v-88h-73v142l400 -1v-53h-68v-146h103q94 0 139 -47t43 -106q0 -60 -46.5 -103.5t-141.5 -43.5h-296v54h59v392zM361 54h18q13 0 26.5 -0.5t23.5 2.5q28 8 48 33.5t20 57.5q0 106 -136 93v-186z" />
    <glyph glyph-name="ring" unicode="&#xfb;" horiz-adv-x="815" 
d="M586 54v392h-59v53h258v-53h-58v-392h58v-54h-258v54h59zM89 54v392h-60v53h268v-53h-69v-146h101q95 0 140 -46.5t45 -106.5q-2 -61 -48 -104t-141 -43h-296v54h60zM228 54h20q13 0 25 -0.5t24 2.5q29 8 48.5 33t19.5 58q0 106 -137 93v-186z" />
    <glyph glyph-name="ring" unicode="&#x44b;" horiz-adv-x="815" 
d="M586 54v392h-59v53h258v-53h-58v-392h58v-54h-258v54h59zM89 54v392h-60v53h268v-53h-69v-146h101q95 0 140 -46.5t45 -106.5q-2 -61 -48 -104t-141 -43h-296v54h60zM228 54h20q13 0 25 -0.5t24 2.5q29 8 48.5 33t19.5 58q0 106 -137 93v-186z" />
    <glyph glyph-name="cedilla" unicode="&#xfc;" horiz-adv-x="553" 
d="M94 54v392h-59v53h268v-53h-69v-146h101q95 0 141 -47.5t44 -105.5q-2 -61 -48.5 -104t-140.5 -43h-296v54h59zM234 54h20q12 0 24.5 -0.5t24.5 2.5q28 8 48 33.5t20 57.5q0 106 -137 93v-186z" />
    <glyph glyph-name="cedilla" unicode="&#x44c;" horiz-adv-x="553" 
d="M94 54v392h-59v53h268v-53h-69v-146h101q95 0 141 -47.5t44 -105.5q-2 -61 -48.5 -104t-140.5 -43h-296v54h59zM234 54h20q12 0 24.5 -0.5t24.5 2.5q28 8 48 33.5t20 57.5q0 106 -137 93v-186z" />
    <glyph glyph-name="hungarumlaut" unicode="&#xfd;" horiz-adv-x="517" 
d="M182 224v51h153q-1 98 -36 145.5t-87 45.5q-46 0 -76.5 -37t-30.5 -97h-58v167h58l-1 -28l-6 -13l6 -4l7 14q54 42 128 43q70 0 124.5 -32.5t86 -89t34.5 -127.5q3 -63 -22.5 -125t-82 -103.5t-140.5 -45.5q-134 -6 -213 85l47 63q17 -34 35 -56.5t44.5 -35.5t56.5 -12
q52 0 89.5 46.5t36.5 145.5h-153z" />
    <glyph glyph-name="hungarumlaut" unicode="&#x44d;" horiz-adv-x="517" 
d="M182 224v51h153q-1 98 -36 145.5t-87 45.5q-46 0 -76.5 -37t-30.5 -97h-58v167h58l-1 -28l-6 -13l6 -4l7 14q54 42 128 43q70 0 124.5 -32.5t86 -89t34.5 -127.5q3 -63 -22.5 -125t-82 -103.5t-140.5 -45.5q-134 -6 -213 85l47 63q17 -34 35 -56.5t44.5 -35.5t56.5 -12
q52 0 89.5 46.5t36.5 145.5h-153z" />
    <glyph glyph-name="ogonek" unicode="&#xfe;" horiz-adv-x="874" 
d="M237 446v-146l83 -2q22 97 95 155t158 58q48 0 96.5 -20t83 -54t56 -84t21.5 -103q0 -72 -36 -133t-95 -95t-126 -34q-98 0 -174.5 71t-80.5 185l-81 2v-192h60v-54h-259v54h60v392h-60v53h259v-53h-60zM466 250q0 -218 107 -218q108 0 108 218q0 216 -108 216
q-107 0 -107 -216z" />
    <glyph glyph-name="ogonek" unicode="&#x44e;" horiz-adv-x="874" 
d="M237 446v-146l83 -2q22 97 95 155t158 58q48 0 96.5 -20t83 -54t56 -84t21.5 -103q0 -72 -36 -133t-95 -95t-126 -34q-98 0 -174.5 71t-80.5 185l-81 2v-192h60v-54h-259v54h60v392h-60v53h259v-53h-60zM466 250q0 -218 107 -218q108 0 108 218q0 216 -108 216
q-107 0 -107 -216z" />
    <glyph glyph-name="fl" unicode="&#xff;" horiz-adv-x="589" 
d="M504 446v-392h59v-54h-259v54h60v155h-38l-95 -159q-37 -62 -111 -62q-45 -1 -100 17v51q14 -5 30 -5q40 0 69 39q12 19 32 44q19 28 31 44q15 18 19 20q8 6 10 6l11 3v5q-64 -9 -111.5 34.5t-44.5 111.5q6 90 68.5 115.5t123.5 25.5h247h58v-53h-59zM364 446h-55
q-104 0 -105 -91q-4 -103 105 -103h55v194z" />
    <glyph glyph-name="fl" unicode="&#x44f;" horiz-adv-x="589" 
d="M504 446v-392h59v-54h-259v54h60v155h-38l-95 -159q-37 -62 -111 -62q-45 -1 -100 17v51q14 -5 30 -5q40 0 69 39q12 19 32 44q19 28 31 44q15 18 19 20q8 6 10 6l11 3v5q-64 -9 -111.5 34.5t-44.5 111.5q6 90 68.5 115.5t123.5 25.5h247h58v-53h-59zM364 446h-55
q-104 0 -105 -91q-4 -103 105 -103h55v194z" />
    <glyph glyph-name="Otilde" unicode="&#x152;" horiz-adv-x="772" 
d="M279 372l285 278h-86v60h257v-60h-89l-199 -192l246 -399h70v-59h-332v59h83l-178 291l-57 -57v-234h83v-59h-83h-153h-82v59h82v591h-82v60h82h153h83v-60h-83v-278z" />
    <glyph glyph-name="oe" unicode="&#x153;" horiz-adv-x="489" 
d="M357 499h63v-152h-63q3 49 -25.5 84t-79.5 36q-43 1 -66 -16t-25 -43q0 -30 29 -47q21 -14 47 -22q34 -16 61 -27q47 -18 70 -32q78 -42 82 -123q3 -69 -48 -118.5t-148 -50.5q-82 -1 -125 45l-7 12h-5l5 -15v-30h-63v166h63q-2 -53 29.5 -92t100.5 -38q80 5 88 63
q1 27 -26 49q-11 7 -63 31q-10 5 -27.5 12.5t-32.5 13.5q-53 22 -67 31q-70 45 -70 123q-2 66 46.5 109t128.5 43q83 0 121 -41l4 -8h5l-2 13v24z" />
    <glyph glyph-name="florin" unicode="&#x192;" horiz-adv-x="351" 
d="M93 -52l1 498h-59v53h59v49q0 56 34.5 114.5t154.5 55.5q68 0 113 -27l-37 -81h-15q-6 23 -24.5 45t-39.5 19q-46 -4 -46 -81v-94h86v-53h-86l-1 -473q0 -168 -157 -174q-27 0 -46 3t-46 15.5t-46 39.5l57 62h14q0 -72 39 -75q35 -4 42 36q1 13 1 32q2 13 2 36z" />
    <glyph glyph-name="dagger" unicode="&#x2020;" horiz-adv-x="573" 
d="M149 665h85v244h105v-244h81v-96h-81v-777h-105v777h-85v96z" />
    <glyph glyph-name="currency" unicode="&#x2219;" horiz-adv-x="645" 
d="M41 499h199v-314q0 -55 13 -94.5t63 -39.5q91 -1 91 157v238h-57v53h196v-445h60v-54h-199v43l7 20h-7l-9 -18q-20 -25 -58 -41t-78 -16q-106 3 -133.5 64t-27.5 133v261h-60v53z" />
    <glyph glyph-name="cent" horiz-adv-x="538" 
d="M333 708v-201q52 -9 95 -46l4 -17h6l-2 18l-1 37h62l2 -168h-63q-10 68 -41 98t-69 30q-37 3 -71 -22.5t-52 -78t-17 -124.5q3 -106 48 -155t105 -49q57 3 126 72l32 -52q-53 -56 -163 -62l-1 -193h-105v204q-87 22 -137.5 88.5t-52.5 158.5t49 165.5t141 93.5q2 0 1 76
t-1 127h105z" />
    <glyph glyph-name="sterling" horiz-adv-x="594" 
d="M279 72h232v85h68v-157h-535v59h82v591h-82v60h82h156h80v-60h-83v-578z" />
    <glyph glyph-name="acute" horiz-adv-x="1266" 
d="M44 511q0 59 26 100.5t66.5 62.5t79.5 21q65 0 119.5 -48t54.5 -136q0 -59 -27 -102t-66.5 -63.5t-80.5 -20.5q-65 2 -118.5 51.5t-53.5 134.5zM152 511q1 -8 1.5 -14.5t0.5 -17.5q2 -22 7 -39q10 -65 58 -65q15 0 32 15t23 50q4 13 6 39q1 8 1.5 14.5t0.5 17.5
q0 10 -0.5 16.5t-1.5 14.5q-2 25 -6 37q-5 36 -21.5 51t-33.5 15q-48 3 -58 -66q-5 -16 -7 -37q0 -11 -0.5 -17t-1.5 -14zM619 724l72 -18l-451 -836l-67 21zM458 72q0 58 26 99.5t65.5 62.5t79.5 21q41 0 81 -20t67 -61.5t27 -101.5q0 -88 -55.5 -137.5t-119.5 -49.5
q-66 3 -118.5 53t-52.5 134zM565 72q1 -8 1.5 -15t0.5 -17q1 -16 6 -39q7 -35 23.5 -49.5t34.5 -14.5q44 0 57 64q3 16 5 39q1 8 1.5 14.5t0.5 17.5q0 9 -0.5 15.5t-1.5 14.5q-2 22 -5 38q-12 62 -57 67q-18 0 -34.5 -15t-23.5 -52q-5 -23 -6 -38q0 -11 -0.5 -17t-1.5 -13z
M878 72q0 58 26 99.5t65.5 62.5t79.5 21q41 0 81 -20t67 -61.5t27 -101.5q0 -88 -55.5 -137.5t-119.5 -49.5q-66 3 -118.5 53t-52.5 134zM985 72q1 -8 1.5 -15t0.5 -17q1 -16 6 -39q7 -35 23.5 -49.5t34.5 -14.5q44 0 57 64q3 16 5 39q1 8 1.5 14.5t0.5 17.5q0 9 -0.5 15.5
t-1.5 14.5q-2 22 -5 38q-12 62 -57 67q-18 0 -34.5 -15t-23.5 -52q-5 -23 -6 -38q0 -11 -0.5 -17t-1.5 -13z" />
    <glyph glyph-name="notequal" 
d="M-12 548h348l114 212h89l-114 -212h146v-89h-193l-69 -128h262v-89h-309l-134 -250h-89l134 250h-185v89h232l69 128h-301v89z" />
    <glyph glyph-name="AE" horiz-adv-x="594" 
d="M279 639v-580h92v-59h-327v59h82v590h-82v61h535v-145h-69v74h-231z" />
    <glyph glyph-name="Oslash" horiz-adv-x="459" 
d="M440 499v-140h-73v87h-136v-392h69v-54h-268v54h59v392h-59v53h408z" />
    <glyph glyph-name="lessequal" horiz-adv-x="743" 
d="M66 420l542 312l39 -70l-479 -277l479 -277l-39 -70l-542 312v70zM51 -91v89h558v-89h-558z" />
    <glyph glyph-name="greaterequal" horiz-adv-x="743" 
d="M675 350l-541 -312l-40 70l480 277l-480 277l40 70l541 -312v-70zM132 -91v89h558v-89h-558z" />
    <glyph glyph-name="yen" horiz-adv-x="721" 
d="M72 422h135l-132 228h-84v60h334v-60h-99l129 -228h108l139 228h-97v60h238v-60h-85l-139 -228h136v-89h-190l-21 -35v-93h211v-89h-211v-57h83v-59h-318v59h84v57h-221v89h221v69l-34 59h-187v89zM409 333h-5l1 -4h3z" />
    <glyph glyph-name="mu" horiz-adv-x="645" 
d="M41 499h199v-314q0 -55 13 -94.5t63 -39.5q91 -1 91 157v238h-57v53h196v-445h60v-54h-199v43l7 20h-7l-9 -18q-20 -25 -58 -41t-78 -16q-106 3 -133.5 64t-27.5 133v261h-60v53z" />
    <glyph glyph-name="partialdiff" horiz-adv-x="596" 
d="M186 250q0 -218 110 -218q37 0 72 42t35 176t-35 175t-72 41q-110 0 -110 -216zM38 250q0 111 77 186t181 75q66 0 125 -34t94.5 -93t35.5 -134q0 -112 -77 -187t-178 -75q-103 0 -180.5 76t-77.5 186z" />
    <glyph glyph-name="summation" horiz-adv-x="564" 
d="M196 710h326v-60h-83v-450q0 -54 -10 -96t-55 -77t-138 -39q-127 -4 -176.5 52t-49.5 136h142q-2 -63 10 -99.5t57 -36.5t56.5 31t11.5 91v488h-91v60z" />
    <glyph glyph-name="product" horiz-adv-x="745" 
d="M498 335h-296q-2 -56 17.5 -124.5t74 -117.5t151.5 -49q135 1 202 111l56 -54q-104 -121 -288 -113q-129 4 -217.5 62.5t-130 145.5t-39.5 180q0 101 47 179t128 121.5t181 44.5q123 2 214 -65l41 48h52l-1 -200h-53q-13 42 -41 77.5t-68 57t-90 22.5q-90 2 -156 -63.5
t-79 -202.5h295v-60z" />
    <glyph glyph-name="pi" horiz-adv-x="517" 
d="M328 224h-153q0 -101 37 -146.5t89 -45.5q85 -3 136 104l47 -63q-79 -91 -213 -85q-84 4 -140.5 45.5t-82 103.5t-22.5 125q3 71 34.5 127.5t86 89t124.5 32.5q74 -1 128 -43l7 -14l6 4l-6 13l-1 28h58v-167h-58q0 60 -30.5 97t-76.5 37q-52 2 -87 -45.5t-36 -145.5h153
v-51z" />
    <glyph glyph-name="ordmasculine" horiz-adv-x="772" 
d="M364 553l-6 -29l-173 -446q-15 -37 -39 -63t-73 -27q-31 0 -73 14l50 117q20 -20 43 -20q32 0 52 51l199 500h-79v60h81h112l243 -651h71v-59h-307v59h80l-171 465l-5 29h-5z" />
    <glyph glyph-name="Omega" horiz-adv-x="622" 
d="M289 374l-116 -301q-15 -39 -32.5 -60.5t-56.5 -24.5q-18 0 -35 5t-29 9v105q19 -23 55 -23q34 0 49.5 20t25.5 53l110 294h-98v54h217l163 -451h60v-54h-266v54h62l-97 320l-3 30h-5z" />
    <glyph glyph-name="ae" horiz-adv-x="877" 
d="M279 346v-287h83v-59h-80h-156h-82v59h82v591h-82v60h82h156h80v-60h-83v-242h318v242h-83v60h80h155h83v-60h-83v-591h83v-59h-83h-155h-80v59h83v287h-318z" />
    <glyph glyph-name="oslash" horiz-adv-x="650" 
d="M234 243v-189h51v-54h-250v54h59v392h-59v53h250v-53h-51v-149h177v149h-49v53h250v-53h-59v-392h59v-54h-250v54h49v189h-177z" />
    <glyph glyph-name="questiondown" horiz-adv-x="296" 
d="M36 499h200v-553q0 -168 -157 -174q-27 0 -46 3t-46 15.5t-46 39.5l57 62h14q0 -72 39 -75q35 -4 42 36q1 13 1 32q2 13 2 36v525h-60v53zM84 639q0 30 22 52t53 22q32 0 53 -22t21 -52q0 -31 -22 -53t-52 -22q-29 0 -52 22t-23 53z" />
    <glyph glyph-name="exclamdown" horiz-adv-x="594" 
d="M465 710h56v-181h-65q-3 63 -52.5 105.5t-114.5 42.5q-59 -1 -96.5 -31t-37.5 -71q0 -43 23.5 -61t72.5 -39l163 -67q143 -64 142 -194q-2 -95 -76.5 -160.5t-197.5 -65.5q-96 0 -175 62l-18 -50h-51v186h61q8 -67 58.5 -112t120.5 -44q61 2 104 35t46 86q1 34 -15 56
t-36.5 33t-55.5 26l-125 52q-86 38 -117 95t-31 111q1 54 31.5 98.5t84.5 71.5t118 27q89 0 158 -54z" />
    <glyph glyph-name="radical" horiz-adv-x="803" 
d="M449 194l289 603l63 -36l-358 -761h-82l-217 512h-134v87h264z" />
    <glyph glyph-name="approxequal" horiz-adv-x="549" 
d="M58 163q29 73 63.5 96t56.5 23q35 1 64 -14q13 -6 74 -35q45 -25 70 -15q20 6 49 46l32 -19q-15 -44 -46.5 -83.5t-75.5 -42.5q-14 0 -54 11q-32 14 -58.5 26.5t-36.5 16.5q-16 10 -29 11q-40 7 -77 -41zM70 370q29 73 63.5 96t56.5 23q35 1 64 -14q13 -6 74 -35
q45 -25 70 -15q20 6 49 46l32 -19q-15 -44 -46.5 -83.5t-75.5 -42.5q-14 0 -54 11q-32 14 -58.5 26.5t-36.5 16.5q-16 10 -29 11q-40 7 -77 -41z" />
    <glyph glyph-name="Delta" horiz-adv-x="803" 
d="M741 94l-66 -97l-558 3l-54 61l298 650h82zM141 61h419l-205 456z" />
    <glyph glyph-name="OE" horiz-adv-x="625" 
d="M228 262l190 184h-57v53h200v-53h-71l-111 -106l160 -250q21 -35 69 -39v-51q-41 -12 -69 -12q-66 -4 -102 22.5t-63 69.5l-94 163l-52 -50v-139h59v-54h-258v54h60v392h-60v53h258v-53h-59v-184z" />
    <glyph glyph-name="fraction" horiz-adv-x="832" 
d="M41 710h318v-60h-84v-370q0 -92 32.5 -164t158.5 -71q187 6 187 235v370h-85v60h223v-60h-84v-370q0 -115 -49 -203t-226 -89q-110 0 -174 27.5t-92 69.5t-35 85.5t-7 98.5v381h-83v60z" />
  </font>
</defs>
</svg>
